<?xml version="1.0" encoding="utf-8"?>
<!-- Generator: Adobe Illustrator 22.0.1, SVG Export Plug-In . SVG Version: 6.00 Build 0)  -->
<svg version="1.1" id="Layer_1" xmlns="http://www.w3.org/2000/svg" xmlns:xlink="http://www.w3.org/1999/xlink" x="0px" y="0px"
	 viewBox="0 0 520.8 93.1" style="enable-background:new 0 0 520.8 93.1;" xml:space="preserve">
<style type="text/css">
	.st0{fill:#7F7F7F;}
</style>
<g>
	<g>
		<path class="st0" d="M158.2,20.8l17.1,51h-9.4l-3.6-11.3h-17.7l-3.5,11.3h-9.4l17.1-51H158.2z M147.2,52.1h12.4l-6.3-19.7
			L147.2,52.1z"/>
		<path class="st0" d="M182.5,71.8V20.9H204c8.8,0,14.1,5.4,14.1,11.2v10.8c0,4.1-2.8,8-7.5,9.9l8.6,18.9h-9.9l-8.1-17.8h-9.4v17.8
			L182.5,71.8L182.5,71.8z M191.9,29.3v16.2h11.4c3,0,5.5-1.7,5.5-4.7v-6.7c0-3.1-2.6-4.8-5.9-4.8H191.9z"/>
		<path class="st0" d="M236.8,71.8V29.3h-12.6V21h33.6v8.3h-11.6v42.5H236.8z"/>
		<path class="st0" d="M269.1,57.3v3.3c0,4.5,4.2,7.9,9.6,7.9h6c5.6,0,9.9-2.7,9.9-7.4v-3.6c0-7.8-28.1-9.3-28.1-22.7v-4.6
			c0-5.1,4.9-9.6,11.4-9.6h6.7c7.3,0,12.7,4.9,12.7,10.4v4.6h-4.2v-3.8c0-4.2-3.9-7.4-8.8-7.4h-5.7c-4.3,0-7.8,2.8-7.8,6.5v3.7
			c0,10,28.1,11.3,28.1,22.3v4.9c0,6.4-5.9,10.4-13.8,10.4h-6.5c-7.9,0-13.7-5.1-13.7-11v-3.9C264.9,57.3,269.1,57.3,269.1,57.3z"/>
		<path class="st0" d="M319.9,71.8V24.7h-14.2V21h32v3.7h-13.6v47.1C324.1,71.8,319.9,71.8,319.9,71.8z"/>
		<path class="st0" d="M360.4,20.6l17.9,51.1H374l-5.7-16.3H348l-5.6,16.3h-4.3l18-51.1H360.4z M349.3,51.7H367l-8.8-25.6
			L349.3,51.7z"/>
		<path class="st0" d="M393.1,71.8V24.7h-14.2V21h32v3.7h-13.6v47.1C397.3,71.8,393.1,71.8,393.1,71.8z"/>
		<path class="st0" d="M420.3,71.8V21h4.2v50.8H420.3z"/>
		<path class="st0" d="M450.6,72.2c-7,0-12-5.1-12-11V31.6c0-5.9,5.1-11,12-11h10.1c6.9,0,11.9,5.1,11.9,11v29.6c0,5.9-5,11-11.9,11
			H450.6z M460.4,68.4c4.5,0,8.1-3.4,8.1-7.9V32.3c0-4.5-3.6-7.9-8.1-7.9h-9.5c-4.5,0-8.1,3.4-8.1,7.9v28.2c0,4.5,3.6,7.9,8.1,7.9
			H460.4z"/>
		<path class="st0" d="M486.7,71.8V21h4.4l25.5,43.4V20.9h4.2v50.8h-4.4l-25.5-43.4v43.4h-4.2V71.8z"/>
	</g>
	<g>
		<path class="st0" d="M0,71.8l8.9,15.4l0,0c1.8,3.5,5.4,5.9,9.5,5.9l0,0l0,0h59.3L65.4,71.8L0,71.8L0,71.8z"/>
		<path class="st0" d="M105.8,71.9c0-2.1-0.6-4.1-1.7-5.8L69.3,5.7C67.5,2.3,64,0,59.9,0H41.5l53.7,93l8.5-14.7
			C105.3,75.5,105.8,74.3,105.8,71.9z"/>
		<polygon class="st0" points="56.7,56.6 32.8,15.1 8.8,56.6 		"/>
	</g>
</g>
</svg>
