<?xml version="1.0" encoding="utf-8"?>
<!-- Generator: Adobe Illustrator 22.0.1, SVG Export Plug-In . SVG Version: 6.00 Build 0)  -->
<svg version="1.1" id="Layer_1" xmlns="http://www.w3.org/2000/svg" xmlns:xlink="http://www.w3.org/1999/xlink" x="0px" y="0px"
	 viewBox="0 0 55 55" style="enable-background:new 0 0 55 55;" xml:space="preserve">
<style type="text/css">
	.st0{fill:#CE1E53;}
	.st1{fill:#00AFAC;}
	.st2{fill:#FFFFFF;}
	.st3{clip-path:url(#SVGID_2_);fill:#FFFFFF;}
	.st4{clip-path:url(#SVGID_2_);fill:#00AFAC;}
</style>
<g>
	<path class="st1" d="M24.5,19.2c-3.6-0.9-7.8-1.2-11.1,1c-2.9,2-4.4,5.8-2.9,9.3c0.4,0.8,0.9,1.5,1.6,2.1c0.5,0.5,1.1,1,1.3,1.7
		c0.6,1.6,0.2,3.4,0.7,5c1.2,3.5,5.2,4.2,8,2.5c1.7-1,3-2.7,4.1-4.4c1.2-1.9,2.3-3.8,3.3-5.9c0.3-0.6,0.2-1.3-0.4-1.7
		c-0.5-0.3-1.4-0.2-1.6,0.4c-0.7,1.6-1.6,3.2-2.5,4.7c-0.8,1.3-1.6,2.6-2.7,3.7c-0.9,0.9-2,1.6-3.3,1.5c-1,0-2-0.4-2.5-1.4
		c-0.5-1.3-0.3-2.9-0.5-4.2c-0.3-1.6-1.2-2.7-2.3-3.9c-0.9-1-1.4-2-1.3-3.4c0.1-1.3,0.8-2.5,1.7-3.4c2.7-2.5,6.6-2.1,9.8-1.3
		C25.4,22,26,19.6,24.5,19.2"/>
	<path class="st1" d="M32.2,21.3c2.6-1.7,5.5-3.5,8.6-3.3c1.2,0.1,2.4,0.5,3.4,1.3c0.9,0.8,1.6,2.1,0.8,3.3
		c-0.8,1.2-2.5,1.9-2.8,3.4c-0.2,0.9,0.2,1.8,0.5,2.6c0.3,0.7,0.5,1.5,0.5,2.3c0.1,1.4-0.4,2.6-1.7,3.1c-1.4,0.6-3.1,0.8-4.6,0.5
		c-3.2-0.6-5.4-3.5-7.3-6.1c-0.4-0.5-1.3-0.4-1.7,0c-0.5,0.5-0.4,1.3,0,1.8c2.1,2.8,4.4,5.7,7.8,6.6c1.9,0.5,3.9,0.4,5.7-0.1
		c1.8-0.5,3.4-1.5,4-3.5c0.6-1.9,0.1-3.9-0.5-5.7c-0.1-0.2-0.4-0.8-0.3-1c0.1-0.3,0.7-0.6,0.9-0.8c0.6-0.6,1.2-1.2,1.6-1.9
		c1-1.6,0.8-3.7-0.3-5.2c-1-1.5-2.6-2.5-4.2-2.9c-4.2-1.1-8.1,1.2-11.6,3.4C29.7,19.9,30.9,22.1,32.2,21.3"/>
	<path class="st1" d="M24.8,19.1c-1.2-0.4-2.2-0.9-3-1.9c0.1,0.2-0.1-0.1-0.1-0.2c-0.1-0.1-0.1-0.2-0.2-0.3
		c-0.1-0.1-0.1-0.2-0.2-0.3c-0.1-0.2,0.1,0.2,0,0c0-0.1-0.1-0.2-0.1-0.2c-0.1-0.2-0.1-0.5-0.2-0.7c0-0.2,0,0.2,0,0
		c0-0.1,0-0.1,0-0.2c0-0.1,0-0.3,0-0.4c0-0.1,0-0.2,0-0.4c0-0.1,0-0.1,0-0.2c0,0,0,0.2,0,0.1c0.1-0.3,0.1-0.5,0.2-0.8
		c0-0.1,0.2-0.4,0-0.1c0-0.1,0.1-0.2,0.1-0.3c0.1-0.2,0.3-0.4,0.4-0.6c-0.2,0.2,0,0,0.1-0.1c0.1-0.1,0.1-0.2,0.2-0.2
		c0,0,0.3-0.3,0.2-0.2c-0.1,0.1,0.2-0.1,0.2-0.2c0.1-0.1,0.2-0.1,0.3-0.2c0.1,0,0.1-0.1,0.2-0.1c0.2-0.1-0.2,0.1,0,0
		c0.3-0.1,0.5-0.2,0.8-0.2c-0.3,0,0.1,0,0.2,0c0.2,0,0.3,0,0.5,0c0.1,0,0.5,0.1,0.2,0c0.2,0,0.3,0.1,0.5,0.1c0.8,0.2,1.3,0.5,2.1,1
		c0.5,0.3,1.1,0.1,1.5-0.2c0.4-0.3,1.2-0.8,1.6-0.9c0.3-0.1,0.7-0.2,1-0.3c0.1,0,0.3-0.1,0.4-0.1c0.1,0,0.2,0,0.3,0
		c-0.1,0-0.1,0,0.1,0c0.3,0,0.7,0,1,0c0.2,0,0.3,0,0.5,0c0.1,0,0.2,0,0,0c0.1,0,0.2,0,0.2,0c0.3,0.1,0.5,0.1,0.8,0.2
		c0.1,0,0.3,0.1,0.4,0.2c-0.2-0.1,0.2,0.1,0.2,0.1c0.1,0.1,0.3,0.1,0.4,0.2c0,0,0.4,0.3,0.2,0.1c0.2,0.2,0.4,0.3,0.5,0.5
		c0.1,0.1,0.1,0.1,0,0c0,0.1,0.1,0.1,0.1,0.2c0.1,0.1,0.1,0.2,0.2,0.3c0.1,0.1,0.1,0.1,0,0c0,0.1,0,0.1,0.1,0.2
		c0,0.1,0.1,0.3,0.1,0.4c-0.1-0.3,0,0.2,0,0.2c0,0.1,0,0.2,0,0.3c0,0.1,0,0.2,0,0c0,0.1,0,0.2,0,0.2c0,0.2-0.1,0.3-0.1,0.5
		c-0.2,0.7-0.7,1.3-1.1,2c-0.4,0.5-0.1,1.3,0.4,1.6c0.6,0.4,1.2,0.1,1.6-0.4c1.6-2.1,2.4-5,0.5-7.3c-1.6-1.9-4.4-2.3-6.7-1.9
		c-1.6,0.3-3,1-4.2,2l1.5-0.2c-2.5-1.7-6-2.2-8.2,0.3c-1.8,2-2.1,5.1-0.7,7.4c1,1.6,2.7,2.6,4.5,3.2C25.7,21.8,26.3,19.5,24.8,19.1"
		/>
	<path class="st1" d="M27.6,31.4c1.2,3,2.3,6.1,2.2,9.4c-0.1,3.2-1.3,6.3-2.6,9.1c-0.3,0.6-0.2,1.3,0.4,1.6c0.5,0.3,1.4,0.2,1.6-0.4
		c1.5-3.2,2.8-6.6,2.9-10.2c0.1-3.5-0.9-7-2.3-10.2c-0.2-0.6-0.8-1-1.5-0.8C27.9,30.1,27.4,30.8,27.6,31.4"/>
	<path class="st1" d="M34.1,49.7c1-2.1,1.9-4.1,2.9-6.2c0.3-0.6,0.2-1.3-0.4-1.6c-0.5-0.3-1.4-0.2-1.6,0.4c-1,2.1-1.9,4.1-2.9,6.2
		c-0.3,0.6-0.2,1.3,0.4,1.6C32.9,50.4,33.8,50.3,34.1,49.7"/>
	<path class="st2" d="M26.7,6.1c3.4-0.5,7-0.6,10.4,0.2c1.4,0.3,2.7,0.7,3.9,1.3c1,0.5,1.9,1.1,2.5,2c0-0.1,0.1,0.2,0.1,0.2
		c0.1,0.1,0.1,0.2,0.2,0.3c0.1,0.1,0.1,0.2,0.2,0.3c0,0.1,0.1,0.1,0.1,0.2c-0.1-0.1,0-0.1,0,0c0.1,0.2,0.2,0.5,0.2,0.7
		c0,0.1,0.1,0.2,0.1,0.4c0-0.2,0,0.1,0,0.2c0,0.2,0,0.5,0,0.7c0,0.1,0,0.4,0,0.2c0,0.1,0,0.2-0.1,0.4c0,0.2-0.1,0.5-0.2,0.7
		c0,0.1-0.1,0.3-0.1,0.4c-0.1,0.2,0,0-0.1,0.2c-1.1,2.2-2.9,4-5,5.4c-2.8,1.9-5.9,3.3-9.1,4.3c-3.6,1.1-7.4,1.8-11.2,1.8
		c-2.9,0-6.1-0.3-8.8-1.4c-0.6-0.2-1.1-0.5-1.6-0.8c-0.5-0.3-0.7-0.5-1.2-1c-0.2-0.2-0.3-0.4-0.5-0.6C6.7,22.3,6.5,22,6.4,22
		c-0.1-0.1-0.1-0.2-0.2-0.3c-0.1-0.1-0.1-0.2-0.2-0.3c0-0.1-0.2-0.4-0.1-0.2c-0.1-0.2-0.2-0.5-0.2-0.7c0-0.1-0.1-0.3-0.1-0.4
		c0-0.1,0,0,0,0c0-0.1,0-0.1,0-0.2c0-0.3,0-0.6,0-0.8c0-0.1,0-0.3,0-0.1c0-0.1,0-0.3,0.1-0.4C5.8,18.2,5.9,18,6,17.7
		c0.2-0.5,0.4-0.9,0.7-1.4c0.3-0.5,0.6-1,1-1.4c2.1-2.4,4.9-4.2,7.8-5.5c0.9-0.4,1.7-0.8,2.6-1.1c0.6-0.2,1-0.8,0.8-1.5
		c-0.2-0.6-0.9-1.1-1.5-0.8c-3.6,1.4-7.1,3.2-10,5.8c-2.1,1.9-4,4.4-4.2,7.3c-0.2,2.6,1.3,4.9,3.3,6.4c2.5,1.8,5.8,2.5,8.8,2.8
		c4,0.4,8.1,0,12-0.9c3.8-0.9,7.6-2.3,11-4.3c2.7-1.6,5.2-3.6,6.9-6.2c1.3-2,2-4.6,1.1-6.9c-1-2.7-3.4-4.3-6-5.3
		c-3.3-1.3-7.1-1.5-10.6-1.3c-1,0.1-2.1,0.2-3.1,0.3c-0.6,0.1-1.2,0.5-1.2,1.2C25.5,5.4,26.1,6.1,26.7,6.1"/>
	<path class="st2" d="M22.6,6.8c1.5,0,1.5-2.4,0-2.4C21,4.4,21,6.8,22.6,6.8"/>
</g>
</svg>
