<?xml version="1.0" encoding="utf-8"?>
<!-- Generator: Adobe Illustrator 22.0.1, SVG Export Plug-In . SVG Version: 6.00 Build 0)  -->
<svg version="1.1" id="Layer_1" xmlns="http://www.w3.org/2000/svg" xmlns:xlink="http://www.w3.org/1999/xlink" x="0px" y="0px"
	 viewBox="0 0 46.2 50.3" style="enable-background:new 0 0 46.2 50.3;" xml:space="preserve">
<style type="text/css">
	.st0{fill:#CE1E53;}
	.st1{fill:#00AFAC;}
	.st2{fill:#FFFFFF;}
	.st3{clip-path:url(#SVGID_2_);fill:#FFFFFF;}
	.st4{clip-path:url(#SVGID_2_);fill:#00AFAC;}
</style>
<path class="st0" d="M22.1,16.8c-3.6-0.9-7.8-1.2-11.1,1c-2.9,2-4.4,5.8-2.9,9.3c0.4,0.8,0.9,1.5,1.6,2.1c0.5,0.5,1.1,1,1.3,1.7
	c0.6,1.6,0.2,3.4,0.7,5c1.2,3.5,5.2,4.2,8,2.5c1.7-1,3-2.7,4.1-4.4c1.2-1.9,2.3-3.8,3.3-5.9c0.3-0.6,0.2-1.3-0.4-1.7
	c-0.5-0.3-1.4-0.2-1.6,0.4c-0.7,1.6-1.6,3.2-2.5,4.7c-0.8,1.3-1.6,2.6-2.7,3.7c-0.9,0.9-2,1.6-3.3,1.5c-1,0-2-0.4-2.5-1.4
	c-0.5-1.3-0.3-2.9-0.5-4.2c-0.3-1.6-1.2-2.7-2.3-3.9c-0.9-1-1.4-2-1.3-3.4c0.1-1.3,0.8-2.5,1.7-3.4c2.7-2.5,6.6-2.1,9.8-1.3
	C22.9,19.6,23.6,17.2,22.1,16.8"/>
<path class="st0" d="M29.8,18.9c2.6-1.7,5.5-3.5,8.6-3.3c1.2,0.1,2.4,0.5,3.4,1.3c0.9,0.8,1.6,2.1,0.8,3.3c-0.8,1.2-2.5,1.9-2.8,3.4
	c-0.2,0.9,0.2,1.8,0.5,2.6c0.3,0.7,0.5,1.5,0.5,2.3c0.1,1.4-0.4,2.6-1.7,3.1c-1.4,0.6-3.1,0.8-4.6,0.5c-3.2-0.6-5.4-3.5-7.3-6.1
	c-0.4-0.5-1.3-0.4-1.7,0c-0.5,0.5-0.4,1.3,0,1.8c2.1,2.8,4.4,5.7,7.8,6.6c1.9,0.5,3.9,0.4,5.7-0.1c1.8-0.5,3.4-1.5,4-3.5
	c0.6-1.9,0.1-3.9-0.5-5.7c-0.1-0.2-0.4-0.8-0.3-1c0.1-0.3,0.7-0.6,0.9-0.8c0.6-0.6,1.2-1.2,1.6-1.9c1-1.6,0.8-3.7-0.3-5.2
	c-1-1.5-2.6-2.5-4.2-2.9c-4.2-1.1-8.1,1.2-11.6,3.4C27.2,17.5,28.4,19.7,29.8,18.9"/>
<path class="st0" d="M22.4,16.7c-1.2-0.4-2.2-0.9-3-1.9c0.1,0.2-0.1-0.1-0.1-0.2c-0.1-0.1-0.1-0.2-0.2-0.3C19,14.2,19,14.1,18.9,14
	c-0.1-0.2,0.1,0.2,0,0c0-0.1-0.1-0.2-0.1-0.2c-0.1-0.2-0.1-0.5-0.2-0.7c0-0.2,0,0.2,0,0c0-0.1,0-0.1,0-0.2c0-0.1,0-0.3,0-0.4
	c0-0.1,0-0.2,0-0.4c0-0.1,0-0.1,0-0.2c0,0,0,0.2,0,0.1c0.1-0.3,0.1-0.5,0.2-0.8c0-0.1,0.2-0.4,0-0.1c0-0.1,0.1-0.2,0.1-0.3
	c0.1-0.2,0.3-0.4,0.4-0.6c-0.2,0.2,0,0,0.1-0.1c0.1-0.1,0.1-0.2,0.2-0.2c0,0,0.3-0.3,0.2-0.2c-0.1,0.1,0.2-0.1,0.2-0.2
	c0.1-0.1,0.2-0.1,0.3-0.2c0.1,0,0.1-0.1,0.2-0.1c0.2-0.1-0.2,0.1,0,0c0.3-0.1,0.5-0.2,0.8-0.2c-0.3,0,0.1,0,0.2,0c0.2,0,0.3,0,0.5,0
	c0.1,0,0.5,0.1,0.2,0c0.2,0,0.3,0.1,0.5,0.1c0.8,0.2,1.3,0.5,2.1,1c0.5,0.3,1.1,0.1,1.5-0.2c0.4-0.3,1.2-0.8,1.6-0.9
	c0.3-0.1,0.7-0.2,1-0.3c0.1,0,0.3-0.1,0.4-0.1c0.1,0,0.2,0,0.3,0c-0.1,0-0.1,0,0.1,0c0.3,0,0.7,0,1,0c0.2,0,0.3,0,0.5,0
	c0.1,0,0.2,0,0,0c0.1,0,0.2,0,0.2,0c0.3,0.1,0.5,0.1,0.8,0.2c0.1,0,0.3,0.1,0.4,0.2c-0.2-0.1,0.2,0.1,0.2,0.1
	c0.1,0.1,0.3,0.1,0.4,0.2c0,0,0.4,0.3,0.2,0.1c0.2,0.2,0.4,0.3,0.5,0.5c0.1,0.1,0.1,0.1,0,0c0,0.1,0.1,0.1,0.1,0.2
	c0.1,0.1,0.1,0.2,0.2,0.3c0.1,0.1,0.1,0.1,0,0c0,0.1,0,0.1,0.1,0.2c0,0.1,0.1,0.3,0.1,0.4c-0.1-0.3,0,0.2,0,0.2c0,0.1,0,0.2,0,0.3
	c0,0.1,0,0.2,0,0c0,0.1,0,0.2,0,0.2c0,0.2-0.1,0.3-0.1,0.5c-0.2,0.7-0.7,1.3-1.1,2c-0.4,0.5-0.1,1.3,0.4,1.6
	c0.6,0.4,1.2,0.1,1.6-0.4c1.6-2.1,2.4-5,0.5-7.3C34,6.4,31.2,6,28.9,6.3c-1.6,0.3-3,1-4.2,2l1.5-0.2c-2.5-1.7-6-2.2-8.2,0.3
	c-1.8,2-2.1,5.1-0.7,7.4c1,1.6,2.7,2.6,4.5,3.2C23.2,19.4,23.9,17.1,22.4,16.7"/>
<path class="st0" d="M25.2,29c1.2,3,2.3,6.1,2.2,9.4c-0.1,3.2-1.3,6.3-2.6,9.1c-0.3,0.6-0.2,1.3,0.4,1.6c0.5,0.3,1.4,0.2,1.6-0.4
	c1.5-3.2,2.8-6.6,2.9-10.2c0.1-3.5-0.9-7-2.3-10.2c-0.2-0.6-0.8-1-1.5-0.8C25.5,27.6,25,28.4,25.2,29"/>
<path class="st0" d="M31.6,47.3c1-2.1,1.9-4.1,2.9-6.2c0.3-0.6,0.2-1.3-0.4-1.6c-0.5-0.3-1.4-0.2-1.6,0.4c-1,2.1-1.9,4.1-2.9,6.2
	c-0.3,0.6-0.2,1.3,0.4,1.6C30.5,48,31.4,47.9,31.6,47.3"/>
<path class="st2" d="M24.3,3.6c3.4-0.5,7-0.6,10.4,0.2c1.4,0.3,2.7,0.7,3.9,1.3c1,0.5,1.9,1.1,2.5,2c0-0.1,0.1,0.2,0.1,0.2
	c0.1,0.1,0.1,0.2,0.2,0.3c0.1,0.1,0.1,0.2,0.2,0.3c0,0.1,0.1,0.1,0.1,0.2c-0.1-0.1,0-0.1,0,0c0.1,0.2,0.2,0.5,0.2,0.7
	C41.9,9,42,9.1,42,9.2c0-0.2,0,0.1,0,0.2c0,0.2,0,0.5,0,0.7c0,0.1,0,0.4,0,0.2c0,0.1,0,0.2-0.1,0.4c0,0.2-0.1,0.5-0.2,0.7
	c0,0.1-0.1,0.3-0.1,0.4c-0.1,0.2,0,0-0.1,0.2c-1.1,2.2-2.9,4-5,5.4c-2.8,1.9-5.9,3.3-9.1,4.3c-3.6,1.1-7.4,1.8-11.2,1.8
	c-2.9,0-6.1-0.3-8.8-1.4c-0.6-0.2-1.1-0.5-1.6-0.8c-0.5-0.3-0.7-0.5-1.2-1c-0.2-0.2-0.3-0.4-0.5-0.6c0.1,0.2-0.1-0.1-0.1-0.2
	c-0.1-0.1-0.1-0.2-0.2-0.3c-0.1-0.1-0.1-0.2-0.2-0.3c0-0.1-0.2-0.4-0.1-0.2c-0.1-0.2-0.2-0.5-0.2-0.7c0-0.1-0.1-0.3-0.1-0.4
	c0-0.1,0,0,0,0c0-0.1,0-0.1,0-0.2c0-0.3,0-0.6,0-0.8c0-0.1,0-0.3,0-0.1c0-0.1,0-0.3,0.1-0.4c0.1-0.3,0.1-0.5,0.2-0.8
	c0.2-0.5,0.4-0.9,0.7-1.4c0.3-0.5,0.6-1,1-1.4c2.1-2.4,4.9-4.2,7.8-5.5c0.9-0.4,1.7-0.8,2.6-1.1c0.6-0.2,1-0.8,0.8-1.5
	c-0.2-0.6-0.9-1.1-1.5-0.8C11.4,4.9,7.9,6.7,5,9.3c-2.1,1.9-4,4.4-4.2,7.3c-0.2,2.6,1.3,4.9,3.3,6.4c2.5,1.8,5.8,2.5,8.8,2.8
	c4,0.4,8.1,0,12-0.9c3.8-0.9,7.6-2.3,11-4.3c2.7-1.6,5.2-3.6,6.9-6.2c1.3-2,2-4.6,1.1-6.9c-1-2.7-3.4-4.3-6-5.3
	C34.7,1,30.9,0.7,27.4,0.9c-1,0.1-2.1,0.2-3.1,0.3c-0.6,0.1-1.2,0.5-1.2,1.2C23.1,3,23.7,3.7,24.3,3.6"/>
<path class="st2" d="M20.2,4.4c1.5,0,1.5-2.4,0-2.4C18.6,2,18.6,4.4,20.2,4.4"/>
</svg>
