<?xml version="1.0" encoding="utf-8"?>
<!-- Generator: Adobe Illustrator 22.0.1, SVG Export Plug-In . SVG Version: 6.00 Build 0)  -->
<svg version="1.1" id="Layer_1" xmlns="http://www.w3.org/2000/svg" xmlns:xlink="http://www.w3.org/1999/xlink" x="0px" y="0px"
	 viewBox="0 0 252 144" style="enable-background:new 0 0 252 144;" xml:space="preserve">
<style type="text/css">
	.st0{fill:#CE1E53;}
	.st1{fill:#00AFAC;}
	.st2{fill:#FFFFFF;}
	.st3{font-family:'MyriadPro-Regular';}
	.st4{font-size:11px;}
	.st5{clip-path:url(#SVGID_2_);fill:#FFFFFF;}
	.st6{clip-path:url(#SVGID_2_);fill:#00AFAC;}
</style>
<rect class="st0" width="252" height="144"/>
<text transform="matrix(1 0 0 1 20.7178 71.7983)"><tspan x="0" y="0" class="st2 st3 st4">I</tspan><tspan x="2.7" y="0" class="st2 st3 st4">lust</tspan><tspan x="19.4" y="0" class="st2 st3 st4">r</tspan><tspan x="22.9" y="0" class="st2 st3 st4">a</tspan><tspan x="28.2" y="0" class="st2 st3 st4">tion &amp; </tspan><tspan x="57.9" y="0" class="st2 st3 st4">D</tspan><tspan x="65.3" y="0" class="st2 st3 st4">esi</tspan><tspan x="77.7" y="0" class="st2 st3 st4">g</tspan><tspan x="83.8" y="0" class="st2 st3 st4">n</tspan></text>
<g>
	<defs>
		<rect id="SVGID_1_" width="252" height="144"/>
	</defs>
	<clipPath id="SVGID_2_">
		<use xlink:href="#SVGID_1_"  style="overflow:visible;"/>
	</clipPath>
	<path class="st5" d="M31.8,104.4v-1.8h-1.7v-0.3h1.7v-1.8h0.4v1.8h1.7v0.3h-1.7v1.8H31.8z M35,105.1h1.4v-4.8h-1V100
		c0.5-0.1,0.8-0.2,1.1-0.4h0.3v5.4H38v0.4h-3V105.1z M41.1,102.8c0-2.4,1-3.3,2.1-3.3c0.5,0,0.9,0.2,1.2,0.6l-0.2,0.3
		c-0.3-0.3-0.6-0.5-1-0.5c-0.9,0-1.7,0.7-1.7,2.9c0,1.4,0.5,2.4,1.5,2.4c0.7,0,1.2-0.6,1.2-1.5c0-0.8-0.4-1.4-1.2-1.4
		c-0.4,0-1,0.3-1.4,0.9l0-0.4c0.4-0.5,0.9-0.8,1.5-0.8c1,0,1.6,0.6,1.6,1.8c0,1-0.7,1.8-1.6,1.8C41.8,105.5,41.1,104.6,41.1,102.8
		 M47.9,101.3c0-0.3,0-0.7,0-1h0c-0.1,0.2-0.3,0.5-0.5,0.7l-1.7,2.4h3.4v0.3h-3.9v-0.2l2.7-3.8h0.4v5.8h-0.4V101.3z M49.9,104
		c0-0.8,0.6-1.3,1.1-1.6v0c-0.4-0.3-0.8-0.7-0.8-1.3c0-0.8,0.7-1.4,1.5-1.4c1,0,1.6,0.6,1.6,1.5c0,0.6-0.5,1.2-0.8,1.5v0
		c0.5,0.3,1,0.7,1,1.5c0,0.8-0.7,1.5-1.7,1.5C50.7,105.5,49.9,104.9,49.9,104 M53.1,104c0-0.9-0.9-1.2-1.8-1.5c-0.6,0.3-1,0.8-1,1.5
		c0,0.7,0.6,1.3,1.4,1.3C52.5,105.2,53.1,104.7,53.1,104 M52.9,101.1c0-0.6-0.4-1.2-1.2-1.2c-0.6,0-1.1,0.5-1.1,1.1
		c0,0.8,0.8,1.1,1.5,1.4C52.6,102,52.9,101.6,52.9,101.1 M56.1,104.8l0.2-0.3c0.3,0.4,0.8,0.7,1.6,0.7c0.8,0,1.4-0.6,1.4-1.5
		c0-0.9-0.6-1.5-1.4-1.5c-0.4,0-0.7,0.2-1.1,0.4l-0.3-0.2l0.2-2.7h2.7v0.4h-2.3l-0.2,2.1c0.3-0.2,0.6-0.3,1-0.3c1,0,1.8,0.6,1.8,1.8
		c0,1.2-0.9,1.9-1.8,1.9C57,105.5,56.5,105.1,56.1,104.8 M63.1,101.3c0-0.3,0-0.7,0-1h0c-0.1,0.2-0.3,0.5-0.5,0.7l-1.7,2.4h3.4v0.3
		h-3.9v-0.2l2.7-3.8h0.4v5.8h-0.4V101.3z M65.2,102.5c0-1.9,0.6-3,1.7-3c1.1,0,1.7,1.1,1.7,3c0,1.9-0.6,3-1.7,3
		C65.9,105.5,65.2,104.5,65.2,102.5 M68.3,102.5c0-1.8-0.5-2.6-1.3-2.6c-0.8,0-1.3,0.9-1.3,2.6c0,1.8,0.5,2.7,1.3,2.7
		C67.8,105.2,68.3,104.3,68.3,102.5 M71.4,104.7l0.2-0.3c0.3,0.4,0.8,0.7,1.6,0.7c0.8,0,1.3-0.5,1.3-1.3c0-0.8-0.6-1.3-2-1.3v-0.4
		c1.3,0,1.8-0.6,1.8-1.2c0-0.7-0.5-1.1-1.2-1.1c-0.5,0-1,0.3-1.3,0.6l-0.2-0.3c0.4-0.4,0.9-0.7,1.6-0.7c0.9,0,1.6,0.5,1.6,1.4
		c0,0.8-0.5,1.2-1.1,1.4v0c0.7,0.2,1.3,0.7,1.3,1.5c0,1-0.8,1.6-1.8,1.6C72.4,105.5,71.8,105.1,71.4,104.7 M76,105.2
		c1.9-1.9,2.8-3,2.8-4c0-0.7-0.4-1.3-1.3-1.3c-0.5,0-1,0.3-1.3,0.8l-0.3-0.2c0.4-0.5,0.9-0.9,1.6-0.9c1,0,1.6,0.6,1.6,1.6
		c0,1.1-1,2.2-2.6,3.9c0.3,0,0.7,0,1,0h2v0.4H76V105.2z M80.6,105l0.2-0.3c0.3,0.3,0.6,0.5,1,0.5c0.9,0,1.7-0.7,1.7-2.9
		c0-1.4-0.5-2.4-1.5-2.4c-0.7,0-1.2,0.6-1.2,1.5c0,0.8,0.4,1.4,1.2,1.4c0.4,0,1-0.3,1.4-0.9l0,0.4c-0.4,0.5-0.9,0.8-1.5,0.8
		c-1,0-1.6-0.6-1.6-1.8c0-1,0.7-1.8,1.6-1.8c1.1,0,1.9,1,1.9,2.7c0,2.4-1,3.3-2.1,3.3C81.3,105.5,80.9,105.3,80.6,105 M84.8,104.8
		l0.2-0.3c0.3,0.4,0.8,0.7,1.6,0.7c0.8,0,1.4-0.6,1.4-1.5c0-0.9-0.6-1.5-1.4-1.5c-0.4,0-0.7,0.2-1.1,0.4l-0.3-0.2l0.2-2.7h2.7v0.4
		h-2.3l-0.2,2.1c0.3-0.2,0.6-0.3,1-0.3c1,0,1.8,0.6,1.8,1.8c0,1.2-0.9,1.9-1.8,1.9C85.6,105.5,85.1,105.1,84.8,104.8"/>
	<path class="st5" d="M30.6,114H31v4.8h0l2.1-2.6h0.5l-1.4,1.7l1.6,2.6h-0.4l-1.4-2.3l-1,1.1v1.2h-0.4V114z M34.6,119.4
		c0-1,0.9-1.4,2.8-1.6c0-0.7-0.2-1.4-1-1.4c-0.6,0-1.1,0.3-1.4,0.5l-0.2-0.3c0.3-0.2,0.9-0.6,1.6-0.6c1,0,1.4,0.7,1.4,1.7v2.8h-0.3
		l0-0.6h0c-0.4,0.4-1,0.7-1.5,0.7C35.1,120.5,34.6,120.2,34.6,119.4 M37.3,119.5V118c-1.8,0.2-2.4,0.6-2.4,1.3
		c0,0.6,0.4,0.9,0.9,0.9C36.4,120.2,36.8,120,37.3,119.5 M39.4,116.1h0.3l0,0.8h0c0.3-0.5,0.7-0.9,1.2-0.9c0.2,0,0.3,0,0.4,0.1
		l-0.1,0.4c-0.1-0.1-0.2-0.1-0.4-0.1c-0.4,0-0.8,0.3-1.2,1.1v2.9h-0.4V116.1z M43.8,116c1,0,1.7,0.7,1.7,2c0,0.1,0,0.2,0,0.3h-3.1
		c0,1.1,0.7,1.9,1.6,1.9c0.5,0,0.8-0.2,1.2-0.4l0.2,0.3c-0.3,0.2-0.7,0.4-1.4,0.4c-1.1,0-2-0.8-2-2.3C42,116.9,42.9,116,43.8,116
		 M45.1,118c0-1.1-0.5-1.7-1.3-1.7c-0.7,0-1.4,0.6-1.5,1.7H45.1z M46.8,116.1h0.3l0,0.7h0c0.4-0.4,0.9-0.8,1.5-0.8
		c0.9,0,1.3,0.5,1.3,1.7v2.8h-0.4v-2.7c0-0.9-0.3-1.4-1-1.4c-0.5,0-0.9,0.3-1.4,0.8v3.3h-0.4V116.1z M51.4,118.3
		c0-1.4,0.9-2.3,2-2.3c0.6,0,1,0.3,1.3,0.5l-0.2,0.3c-0.3-0.3-0.6-0.5-1-0.5c-0.9,0-1.6,0.8-1.6,1.9s0.6,1.9,1.6,1.9
		c0.5,0,0.9-0.2,1.2-0.5l0.2,0.3c-0.4,0.3-0.8,0.6-1.4,0.6C52.2,120.5,51.4,119.7,51.4,118.3 M55.5,119.4c0-1,0.9-1.4,2.8-1.6
		c0-0.7-0.2-1.4-1-1.4c-0.6,0-1.1,0.3-1.4,0.5l-0.2-0.3c0.3-0.2,0.9-0.6,1.6-0.6c1,0,1.4,0.7,1.4,1.7v2.8h-0.3l0-0.6h0
		c-0.4,0.4-1,0.7-1.5,0.7C56.1,120.5,55.5,120.2,55.5,119.4 M58.3,119.5V118c-1.8,0.2-2.4,0.6-2.4,1.3c0,0.6,0.4,0.9,0.9,0.9
		C57.3,120.2,57.8,120,58.3,119.5 M60.4,116.1h0.3l0,0.8h0c0.3-0.5,0.7-0.9,1.2-0.9c0.2,0,0.3,0,0.4,0.1l-0.1,0.4
		c-0.1-0.1-0.2-0.1-0.4-0.1c-0.4,0-0.8,0.3-1.2,1.1v2.9h-0.4V116.1z M63.3,116.1h0.3l0,0.7h0c0.4-0.4,0.9-0.8,1.5-0.8
		c0.9,0,1.3,0.5,1.3,1.7v2.8h-0.4v-2.7c0-0.9-0.3-1.4-1-1.4c-0.5,0-0.9,0.3-1.4,0.8v3.3h-0.4V116.1z M68,119.4c0-1,0.9-1.4,2.8-1.6
		c0-0.7-0.2-1.4-1-1.4c-0.6,0-1.1,0.3-1.4,0.5l-0.2-0.3c0.3-0.2,0.9-0.6,1.6-0.6c1,0,1.4,0.7,1.4,1.7v2.8h-0.3l0-0.6h0
		c-0.4,0.4-1,0.7-1.5,0.7C68.5,120.5,68,120.2,68,119.4 M70.8,119.5V118c-1.8,0.2-2.4,0.6-2.4,1.3c0,0.6,0.4,0.9,0.9,0.9
		C69.8,120.2,70.2,120,70.8,119.5 M72.1,116.1h0.4l1,2.7c0.1,0.4,0.3,0.9,0.4,1.2h0c0.1-0.4,0.3-0.8,0.4-1.2l1-2.7h0.4l-1.6,4.3
		h-0.5L72.1,116.1z M76.4,119.4c0-1,0.9-1.4,2.8-1.6c0-0.7-0.2-1.4-1-1.4c-0.6,0-1.1,0.3-1.4,0.5l-0.2-0.3c0.3-0.2,0.9-0.6,1.6-0.6
		c1,0,1.4,0.7,1.4,1.7v2.8h-0.3l0-0.6h0c-0.4,0.4-1,0.7-1.5,0.7C76.9,120.5,76.4,120.2,76.4,119.4 M79.2,119.5V118
		c-1.8,0.2-2.4,0.6-2.4,1.3c0,0.6,0.4,0.9,0.9,0.9S78.6,120,79.2,119.5 M81.2,119.9V114h0.4v6c0,0.2,0.1,0.3,0.2,0.3
		c0,0,0.1,0,0.2,0l0.1,0.3c-0.1,0-0.2,0-0.3,0C81.4,120.5,81.2,120.3,81.2,119.9 M85.5,116.3c0-0.3,0-0.7,0-1h0
		c-0.1,0.2-0.3,0.5-0.5,0.7l-1.7,2.4h3.4v0.3h-3.9v-0.2l2.7-3.8h0.4v5.8h-0.4V116.3z M87.6,118.6c0-2.3,1.7-3.9,3.6-3.9
		c1.7,0,2.8,1.1,2.8,2.9c0,1.5-0.9,2.3-1.7,2.3c-0.5,0-0.8-0.2-0.9-0.7h0c-0.3,0.3-0.7,0.6-1.1,0.6c-0.6,0-1-0.4-1-1.2
		c0-0.9,0.6-2,1.7-2c0.3,0,0.6,0.1,0.7,0.4h0l0.1-0.4h0.3l-0.3,1.7c-0.2,0.8,0,1.2,0.5,1.2c0.6,0,1.3-0.7,1.3-2c0-1.5-1-2.6-2.5-2.6
		c-1.6,0-3.2,1.4-3.2,3.5c0,1.8,1.1,2.8,2.7,2.8c0.6,0,1.1-0.2,1.5-0.4l0.1,0.3c-0.5,0.3-1.1,0.5-1.7,0.5
		C88.9,121.8,87.6,120.6,87.6,118.6 M91.4,119l0.3-1.6c-0.2-0.3-0.4-0.4-0.7-0.4c-0.8,0-1.3,0.9-1.3,1.7c0,0.7,0.3,0.9,0.7,0.9
		C90.7,119.6,91,119.4,91.4,119 M95,121.3c0-0.4,0.2-0.8,0.6-1v0c-0.2-0.1-0.4-0.4-0.4-0.7c0-0.4,0.3-0.7,0.5-0.8v0
		c-0.3-0.2-0.5-0.7-0.5-1.2c0-0.9,0.7-1.5,1.5-1.5c0.2,0,0.4,0.1,0.6,0.1h1.5v0.3h-1c0.3,0.2,0.5,0.6,0.5,1.1c0,0.9-0.7,1.5-1.5,1.5
		c-0.2,0-0.5-0.1-0.7-0.2c-0.2,0.2-0.4,0.3-0.4,0.6c0,0.3,0.2,0.6,0.8,0.6h0.9c1,0,1.4,0.3,1.4,1c0,0.7-0.8,1.5-2,1.5
		C95.7,122.5,95,122.1,95,121.3 M98.5,121.1c0-0.5-0.3-0.7-1-0.7h-0.9c-0.1,0-0.3,0-0.5-0.1c-0.4,0.3-0.6,0.6-0.6,0.9
		c0,0.5,0.5,0.9,1.4,0.9C97.8,122.2,98.5,121.6,98.5,121.1 M97.9,117.5c0-0.7-0.5-1.2-1.1-1.2s-1.1,0.5-1.1,1.2
		c0,0.7,0.5,1.2,1.1,1.2S97.9,118.3,97.9,117.5 M99.9,116.1h0.3l0,0.7h0c0.4-0.4,0.9-0.8,1.4-0.8c0.7,0,1,0.3,1.2,0.9
		c0.5-0.5,1-0.9,1.5-0.9c0.9,0,1.3,0.5,1.3,1.7v2.8h-0.4v-2.7c0-0.9-0.3-1.4-1-1.4c-0.4,0-0.8,0.3-1.3,0.8v3.3h-0.4v-2.7
		c0-0.9-0.3-1.4-1-1.4c-0.4,0-0.8,0.3-1.3,0.8v3.3h-0.4V116.1z M107.1,119.4c0-1,0.9-1.4,2.8-1.6c0-0.7-0.2-1.4-1-1.4
		c-0.6,0-1.1,0.3-1.4,0.5l-0.2-0.3c0.3-0.2,0.9-0.6,1.6-0.6c1,0,1.4,0.7,1.4,1.7v2.8h-0.3l0-0.6h0c-0.4,0.4-1,0.7-1.5,0.7
		C107.6,120.5,107.1,120.2,107.1,119.4 M109.9,119.5V118c-1.8,0.2-2.4,0.6-2.4,1.3c0,0.6,0.4,0.9,0.9,0.9
		C108.9,120.2,109.3,120,109.9,119.5 M111.8,114.7c0-0.2,0.2-0.4,0.4-0.4s0.4,0.1,0.4,0.4c0,0.2-0.2,0.4-0.4,0.4
		S111.8,114.9,111.8,114.7 M111.9,116.1h0.4v4.3h-0.4V116.1z M114.1,119.9V114h0.4v6c0,0.2,0.1,0.3,0.2,0.3c0,0,0.1,0,0.2,0l0.1,0.3
		c-0.1,0-0.2,0-0.3,0C114.3,120.5,114.1,120.3,114.1,119.9 M116.2,120.1c0-0.3,0.2-0.4,0.4-0.4c0.2,0,0.4,0.2,0.4,0.4
		c0,0.2-0.2,0.4-0.4,0.4C116.4,120.5,116.2,120.4,116.2,120.1 M118,118.3c0-1.4,0.9-2.3,2-2.3c0.6,0,1,0.3,1.3,0.5l-0.2,0.3
		c-0.3-0.3-0.6-0.5-1-0.5c-0.9,0-1.6,0.8-1.6,1.9s0.6,1.9,1.6,1.9c0.5,0,0.9-0.2,1.2-0.5l0.2,0.3c-0.4,0.3-0.8,0.6-1.4,0.6
		C118.9,120.5,118,119.7,118,118.3 M122.1,118.3c0-1.4,0.9-2.3,1.9-2.3s1.9,0.8,1.9,2.3c0,1.4-0.9,2.3-1.9,2.3
		S122.1,119.7,122.1,118.3 M125.5,118.3c0-1.1-0.6-1.9-1.5-1.9s-1.5,0.8-1.5,1.9s0.7,1.9,1.5,1.9S125.5,119.4,125.5,118.3
		 M127.4,116.1h0.3l0,0.7h0c0.4-0.4,0.9-0.8,1.4-0.8c0.7,0,1,0.3,1.2,0.9c0.5-0.5,1-0.9,1.5-0.9c0.9,0,1.3,0.5,1.3,1.7v2.8h-0.4
		v-2.7c0-0.9-0.3-1.4-1-1.4c-0.4,0-0.8,0.3-1.3,0.8v3.3H130v-2.7c0-0.9-0.3-1.4-1-1.4c-0.4,0-0.8,0.3-1.3,0.8v3.3h-0.4V116.1z"/>
	<path class="st6" d="M24.2,115c-0.3-0.3-0.9-0.2-1.3-0.2c-1.9,0-3.9,0.1-5.8,0.2c-0.3-0.1-0.8,0-0.8,0.5c0,1.5,0,3,0,4.5
		c0,0.4,0.2,0.8,0.6,0.9c0.4,0.1,0.9,0,1.4,0c0.9,0,1.7,0,2.6-0.1c0.4,0,0.9,0,1.3,0c0.2,0,0.4,0,0.6,0c0.2,0,0.5,0,0.7,0
		c0.8-0.3,0.8-1.3,0.8-2c0-0.8,0-1.7,0.1-2.5C24.4,115.8,24.5,115.3,24.2,115 M23.3,116.9c0,0.5,0,0.9,0,1.4c0,0.4,0,0.8,0,1.2
		c0,0.1,0,0.1-0.1,0.2c0,0,0,0.1,0,0.1c-0.2,0-0.4,0-0.6,0c-0.9,0-1.9,0-2.8,0.1c-0.5,0-0.9,0-1.4,0c-0.2,0-0.5,0-0.7,0
		c-0.1,0-0.2,0-0.3,0c0-0.1,0-0.2,0-0.2c0-0.2,0-0.4,0-0.6l0-1.2l0-1.7c1,0,2-0.1,3-0.1c0.6,0,1.1,0,1.7,0c0.3,0,0.6,0,0.9,0
		c0.1,0,0.3,0,0.4,0c0,0,0,0,0,0c0,0.1,0,0.2,0,0.3C23.3,116.5,23.3,116.7,23.3,116.9"/>
	<path class="st6" d="M22.1,116.2c-0.4,0.2-0.7,0.5-1.1,0.7c-0.2,0.1-0.4,0.3-0.6,0.4c-0.1,0.1-0.2,0.1-0.3,0.2c0,0,0,0,0,0
		c-0.2-0.1-0.3-0.2-0.5-0.2c-0.4-0.2-0.9-0.5-1.3-0.8c-0.2-0.2-0.6,0-0.7,0.2c-0.2,0.3,0,0.6,0.2,0.7c0.4,0.3,0.9,0.6,1.4,0.8
		c0.3,0.2,0.8,0.5,1.2,0.4c0.4-0.1,0.8-0.4,1.1-0.7c0.4-0.3,0.8-0.5,1.1-0.8c0.2-0.2,0.4-0.5,0.2-0.7
		C22.7,116.1,22.4,116,22.1,116.2"/>
	<path class="st6" d="M24.7,104.1c0,0,0-0.1,0-0.1c0-0.1,0-0.1,0-0.2c0-0.2,0-0.4-0.1-0.6c-0.1-0.7-0.3-1.5-0.7-2
		c-0.6-0.8-1.5-1.2-2.3-1.4c-1.3-0.2-2.6-0.2-3.8,0.2c-0.8,0.3-1.6,0.8-2.1,1.7c-0.3,0.6-0.5,1.4-0.5,2.2c0,0.2,0,0.3,0,0.5
		c0,0.1-0.1,0.1-0.1,0.2c-0.1,0.3,0.1,0.7,0.3,0.8c0.4,0.1,0.9,0.2,1.4,0.2c0.5,0,1,0,1.4-0.3c0.5-0.4,0.6-1.2,0.7-1.9
		c0-0.1,0-0.1,0-0.1c0,0,0,0,0,0c0.1,0,0,0,0.1-0.1c0.1,0,0.1,0,0.2-0.1c0.2-0.1,0.5-0.1,0.8-0.1c0.3,0,0.5,0,0.7,0.1
		c0,0,0.1,0,0.1,0c0,0.5,0.1,1.1,0.3,1.6c0.3,0.6,0.8,0.6,1.3,0.6c0.5,0,0.9,0,1.4-0.1c0.2,0,0.3,0,0.5-0.2c0.2-0.1,0.2-0.4,0.2-0.7
		C24.8,104.4,24.8,104.3,24.7,104.1 M23.6,102.8C23.7,102.9,23.6,102.8,23.6,102.8 M16.5,102.5C16.5,102.5,16.5,102.5,16.5,102.5
		 M16.2,103.4C16.2,103.4,16.2,103.4,16.2,103.4 M18,104.2C18,104.1,18,104.2,18,104.2 M22.1,104.1
		C22.1,104.1,22.1,104.1,22.1,104.1C22.1,104.1,22.2,104.1,22.1,104.1C22.2,104.1,22.1,104.1,22.1,104.1 M22.3,104.2
		c0,0-0.1,0-0.1,0h0c0,0,0,0-0.1,0c0,0,0,0,0,0c0,0,0,0,0,0c0,0,0-0.1-0.1-0.1c0,0,0,0,0,0c0,0,0,0,0,0c0-0.1,0-0.1,0-0.2
		c0-0.1,0-0.2,0-0.3c0,0,0-0.1,0-0.1c0,0,0,0,0,0c0-0.2,0-0.4,0-0.5c-0.1-0.7-0.8-0.8-1.2-0.8c-0.5-0.1-0.9-0.1-1.4,0
		c-0.5,0.1-0.9,0.4-1.1,1c-0.1,0.3-0.1,0.6-0.2,0.8c0,0.1-0.1,0.3-0.1,0.4c0,0,0,0,0,0l0,0c0,0,0,0,0,0c0,0,0,0,0,0
		c0,0-0.1,0-0.1,0.1c-0.1,0-0.2,0.1-0.3,0.1c0,0,0,0,0,0c-0.1,0-0.1,0-0.2,0c-0.1,0-0.2,0-0.3,0c-0.3,0-0.5,0-0.7-0.1c0,0,0,0,0,0
		c0,0,0-0.1,0-0.1c0,0,0,0,0,0c0-0.1,0-0.2,0-0.3c0-0.1,0-0.2,0-0.2c0-0.1,0-0.1,0-0.1c0,0,0,0,0-0.1c0-0.2,0.1-0.3,0.1-0.5
		c0,0,0,0,0,0c0,0,0-0.1,0-0.1c0-0.1,0.1-0.2,0.1-0.3c0,0,0-0.1,0.1-0.1c0,0,0,0,0,0c0.1-0.1,0.1-0.2,0.2-0.2c0,0,0.1-0.1,0.1-0.1
		c0,0,0,0,0,0c0,0,0,0,0,0c0.1-0.1,0.2-0.1,0.2-0.2c0.4-0.3,0.8-0.5,1.2-0.6c0.6-0.2,1.3-0.2,2-0.2c0.6,0,1.2,0.1,1.8,0.3
		c0.4,0.2,0.7,0.3,1.1,0.6c0,0,0,0,0,0c0,0,0,0,0,0c0,0,0.1,0.1,0.1,0.1c0.1,0.1,0.1,0.2,0.2,0.2c0,0,0,0,0,0.1c0,0,0,0.1,0,0.1
		c0,0.1,0.1,0.2,0.1,0.3c0,0,0,0.1,0,0.1c0,0,0,0,0,0c0,0.1,0,0.2,0.1,0.3c0,0.2,0.1,0.3,0.1,0.5c0,0,0,0.1,0,0.1c0,0,0,0,0,0
		c0,0.1,0,0.1,0,0.2c0,0.1,0,0.1,0,0.2c-0.1,0-0.2,0-0.4,0C23.1,104.2,22.7,104.2,22.3,104.2"/>
</g>
</svg>
