<?xml version="1.0" encoding="utf-8"?>
<!-- Generator: Adobe Illustrator 22.0.1, SVG Export Plug-In . SVG Version: 6.00 Build 0)  -->
<svg version="1.1" id="Layer_1" xmlns="http://www.w3.org/2000/svg" xmlns:xlink="http://www.w3.org/1999/xlink" x="0px" y="0px"
	 viewBox="0 0 148.5 148.5" style="enable-background:new 0 0 148.5 148.5;" xml:space="preserve">
<style type="text/css">
	.st0{fill:#FFFFFF;}
	.st1{fill:#CE1E53;}
	.st2{fill:#00AFAC;}
</style>
<path class="st0" d="M142,148.5H6.5c-3.6,0-6.5-2.9-6.5-6.5V6.5C0,2.9,2.9,0,6.5,0H142c3.6,0,6.5,2.9,6.5,6.5V142
	C148.5,145.6,145.6,148.5,142,148.5z"/>
<g>
	<path class="st1" d="M140.7,54.9c-1,0.3-1.9,0.7-2.8,1.1c-0.8,0.3-0.8,0.3-1.1-0.5c-0.6-1.4-1.7-2.1-3.2-2.2c-0.6,0-1.2,0-1.7,0.1
		c-0.4,0.1-0.7-0.1-0.8-0.5c-0.4-0.9-0.8-1.8-1.2-2.6c-0.3-0.6-0.7-1.1-0.2-1.8c0.1-0.1,0-0.4,0-0.5c-0.4-0.9-0.7-1.8-1.5-2.4
		c-0.5-0.4-0.7-0.8-0.9-1.3c-0.5-1.3-1.3-1.9-2.7-1.8c-1.4,0.1-2.6,0.6-3.7,1.4c-0.8,0.6-1.4,1.3-1.6,2.3c0.1,0.7,0.3,1.3,0.7,1.8
		c0.3,0.4,0.2,0.7,0,1.1c0,0.1,0,0.2,0,0.3c0.3,1.1,0.6,2.2,1.7,2.7c0.1,0.1,0.2,0.2,0.3,0.3c0.8,1.6,1.5,3.2,2.3,4.8
		c0.2,0.4,0.1,0.6-0.3,0.7c-0.4,0.5-0.8,1-1.3,1.5c-0.3,0.3-0.6,0.6-0.6,1c-0.1,0.6-0.4,1-1.1,1c-0.4,0-0.8,0.3-1.2,0.5
		c-1.2,0.7-2.3,1.5-3.4,2.4c-1.5,1.2-2.8,2.6-4.2,3.9c-0.3,0.3-0.6,0.6-1,0.9c-0.2,0.2-0.4,0.3-0.5,0c-0.5-0.8-1.4-1.3-2-2
		c0.1-0.1,0.2-0.2,0.3-0.3c3.1-1.9,4.7-4.9,5.6-8.2c0.2-0.9,0.4-1.8,0.3-2.7c-0.1-1.3-0.8-1.9-2.1-1.9c-0.5,0-1,0.1-1.5,0.1
		c-0.6,0-1.2,0.1-1.7,0c0-0.1,0-0.2,0-0.2c0.1-0.3,0.3-0.6,0.4-0.9c0.8-1.7,1-3.5,0.6-5.3c-0.4-1.6-1.3-2.1-2.8-1.6
		c-1.3,0.4-2.5,0.9-3.7,1.5c-0.2,0.1-0.4,0.3-0.7,0c0.6-1.4,1.3-2.7,1.8-4.2c0.5-1.7,0.8-3.4,0.5-5.1c-0.5-2.3-1.9-3.9-4.2-4.4
		c-1.4-0.4-2.8-0.2-4.2,0.2c-0.3,0.1-0.6,0.4-1.1,0.1c0.1-0.4,0.2-0.8,0.2-1.2c0.2-1.1,0.4-2.2,0.1-3.3c-0.3-1.7-1.5-2.4-3.2-1.9
		c-1,0.3-1.8,0.8-2.6,1.4c-0.9,0.7-1.8,1.5-2.7,2.3c-1.3,1.1-2.7,1.9-4.4,2.2c-0.4,0.1-0.7,0.2-1.2,0c0.5-0.7,1-1.4,1.2-2.1
		c0.7-1.8,0.4-2.8,0.5-3.3c-0.8,0.1-1.4,0.5-2.2,0.7c0.2,1.1-1,2.9-1.5,3.5c-1.2,1.4-3,2.4-4.9,2.8c-0.1-1.4-0.6-3.8-1-5.2
		c-0.5-1.3-2.2,0-2.2,0c0.2,0.7,0.7,2.4,0.8,3.1c0.2,1.4,0.2,2.7,0.2,4.1c0,0.3,0,0.7,0,1c0.2,1.3,1.1,1.6,2.1,0.8
		c0-0.2,0.1-0.4,0.1-0.6c-0.1-0.7,0.4-0.9,0.9-1.2c1.6-0.7,3.3-0.9,5.1-1c0.9-0.1,1.8-0.1,2.7-0.3c1.9-0.4,3.6-1.2,5.1-2.5
		c0.9-0.8,1.8-1.6,2.7-2.3c0.5-0.4,1-0.8,1.7-1c0.5-0.2,0.7-0.1,0.7,0.5c0.1,1-0.1,2-0.4,3c-0.4,1.7-1.4,3-2.6,4.1
		c-0.7,0.6-1.4,1.2-2.1,1.7c-0.5,0.4-0.8,0.9-0.7,1.6c0.3,0.6,0.8,0.8,1.5,0.9c1.5,0.1,2.9,0.5,4.3,0.8c0.4,0.1,0.8,0.3,1.2,0.5
		c0.2,0.2,0.4,0.3,0.2,0.6c-0.2,0.7-0.8,0.9-1.3,1.1c-0.7,0.3-1.5,0.4-2.3,0.5c-0.6,0-1.1,0.1-1.7,0.2c-1.1,0.2-1.3,0.5-1.2,1.7
		c0.4,0.4,0.9,0.6,1.3,0.8c1,0.5,2,1.1,2.5,2.2c0.2,0.1,0.2,0.2,0.2,0.4c0.3,0.3,0.4,0.7,0.6,1.1c0.3,0.9,0.5,1.8,0.7,2.7
		c0,0.3,0,0.7,0.1,1.1c-0.5,0-0.7-0.4-1-0.5c-0.3-0.2-0.5-0.4-0.8-0.5c-0.4-0.2-0.8-0.1-1.1,0.2c-0.3,0.3-0.3,0.7-0.1,1
		c0.2,0.4,0.5,0.6,0.8,0.9c0.8,0.7,1.6,1.3,2.4,1.8c0.7,0.4,1.1,0.4,1.5-0.3c0.3-0.4,0.4-0.9,0.5-1.4c0.2-3.4-0.5-6.5-2.8-9.1
		c-0.1-0.1-0.3-0.2-0.2-0.3c0.1-0.1,0.2-0.1,0.4-0.2c1.2-0.3,2.3-0.9,3.2-1.7c0.1-0.1,0.1-0.2,0.2-0.2c0.4-0.5,0.4-1.1,0.6-1.7
		c0-0.2,0.1-0.3,0.3-0.3c0.1-0.3,0.3-0.4,0.6-0.4c0.4,0,0.3,0.2,0.1,0.4c-0.1,0.4-0.4,0.7-0.7,0.9c-0.3,0.3-0.4,0.6-0.3,1
		c0.3,0.2,0.7,0.1,1,0.1c0.2-0.2,0.3-0.3,0.5-0.5c0.4-0.5,0.8-1,0.9-1.7c0.2-0.9-0.3-1.4-1.1-1.4c-0.4,0-0.8,0.1-1.2,0.3
		c-0.3,0.1-0.5,0.1-0.6-0.2c0.4-0.9,2-1.7,2.8-1.5c0.7,0.2,0.8,0.8,0.7,1.4c0,1.4-0.5,2.5-1.2,3.6c-0.5,0.8-1.1,1.5-1.8,2.2
		c-0.5,0.4-0.9,0.9-1.6,1c-0.5,0.1-0.6,0.4-0.5,0.9c0.6,0.4,1.2,0.3,1.8-0.1c0.2-0.1,0.5-0.3,0.7-0.4c0.3-0.4,0.7-0.8,1.1-1.1
		c0.1-0.1,0.1-0.2,0.2-0.2l0,0c0.2-0.3,0.4-0.5,0.6-0.8c0-0.1,0.1-0.1,0.1-0.2l0,0c1-1.3,1.5-2.8,1.8-4.4c0-0.3,0-0.6,0-0.9
		c-0.2-1.8-1.5-2.6-3.3-2c-0.8,0.3-1.4,0.7-2,1.2c-0.4,0.3-0.7,0.4-1.2,0.2c-1-0.5-2.1-0.6-3.2-0.9c-0.2,0-0.3-0.1-0.1-0.2
		c0.1-0.1,0.3-0.3,0.5-0.3c0-0.2,0.1-0.2,0.2-0.2c0-0.2,0.1-0.2,0.2-0.2c0.1-0.4,0.4-0.6,0.7-0.8c0-0.1,0.1-0.2,0.2-0.2
		c0.1-0.1,0.1-0.3,0.2-0.3c1.3-0.5,2.5-1.3,3.9-1.5c0.4-0.1,0.9-0.1,1.3-0.1c2.5,0,4,1.8,3.8,4.2c0,0.4-0.1,0.9-0.2,1.3
		c-0.5,2-1.3,3.8-2.3,5.6c-0.6,1-1.1,2.1-1.7,3.1c-0.3,0.4-0.3,0.9-0.1,1.3c0.7,0.6,1.3,0.5,2.1,0.1c2.1-1.3,4.3-2.2,6.6-3
		c0.2-0.1,0.5-0.3,0.6,0.1c0.1,0.8,0.1,1.7-0.1,2.5c-0.4,1.2-1.1,2.3-2.2,3c-0.4,0.2-0.8,0.5-1,1c-0.3,0.9,0.2,1.5,1.1,1.6
		c0.3,0,0.6,0,0.9-0.1c1.7-0.2,3.3-0.3,5-0.4c0.7,0,0.7,0,0.6,0.7c-0.5,2.6-1.6,4.9-3.5,6.7c-0.7,0.7-1.5,1.1-2.4,1.5
		c-0.3,0.1-0.7,0.2-1,0.4c-0.5,0.2-1,0.4-1,1.1c0,0.6,0.4,1.3,1,1.6c0.1,0.1,0.3,0.1,0.4,0.1c2.3,0.6,3.3,2.4,3.9,4.5
		c0.1,0.4-0.1,0.6-0.5,0.6c-1.2,0.1-2.5,0-3.7,0c-1.1,0-2.2-0.1-3.3,0c-1,0-1.9,0.4-2.1,1.6c-0.2,1-0.9,1.6-1.8,2
		c-1.8,0.9-3.8,1.4-5.8,1.7c-4.3,0.5-8.7,0.8-13.1,0.3c-2.9-0.3-5.7-1.1-8.5-1.8c-2.6-0.6-5-1.6-7.6-2.2c-2.2-0.5-4.4-0.7-6.7-0.7
		c-1,0-1.9,0.1-2.9,0.3c-0.8,0.1-0.8,0.1-0.6-0.5c0.3-1.2,0.7-2.4,1.2-3.5c0.2-0.5,0.7-0.9,1-1.3c-0.4-1.1-0.6-1.2-1.6-0.9
		c-2.5,0.8-5,1-7.6,1.2c-0.3,0.2-0.5,0-0.5-0.3c0-0.5,0-1.1,0-1.6c0.2-1.7,0.5-3.4,1-5.1c0.1-0.3,0.2-0.7,0.3-1
		c0.6-1.7,1.7-2.6,3.6-2.4c0.7,0.1,1.3,0,1.6-0.8c-0.1-0.5-0.2-0.9-0.7-1c-1.1-0.4-1.8-1.2-2.4-2c-0.3-0.2-0.6-0.5-0.8-0.9
		c0.7-0.3,1.4-0.3,2.1-0.1c0.6,0.2,1.2,0.1,1.6-0.5c0.1-0.6-0.2-1.1-0.6-1.5c-1.1-0.8-1.5-2-1.7-3.2c-0.3-1.5-0.1-3,0.3-4.5
		c0.6-1.9,1.3-3.8,2.1-5.8c0.7,0.7,1.2,1.3,1.6,1.9c0.7,1.2,1.7,2.2,2.1,3.6c0.2,0.7,0.7,1.3,1.2,1.8c0.4,0.4,0.8,0.6,1.4,0.4
		c0.6-0.5,0.5-1.1,0.1-1.6c-0.2-0.3-0.4-0.6-0.6-0.9c-0.6-0.9-0.9-1.9-0.6-3.1c0.3-0.5,0.6-0.4,0.7,0.1c0.2,0.6,0.5,0.8,1,0.9
		c0.5-0.2,0.7-0.6,0.8-1.1c0.1-0.7,0.4-1.4,0.6-2c0.2-0.4,0.3-0.9,0.6-1.3l0,0c0.4-1.4,1.3-2.6,2.2-3.8c0.9-1.3,2.7-2.9,3.9-3.9
		c-0.8-0.1,0.8-1,0-1.1c-0.2,0-2.3,0-2.5,0c-0.5,0.5-2.2,2.4-2.6,3c-1.6,1.9-2.8,3.9-3.8,6.1c-0.2,0.4-0.4,0.7-1,0.6
		c-0.5-0.1-1,0-1.4,0.3c-0.4,0.3-0.7,0.3-1-0.2c-0.5-0.7-1.1-1.4-1.7-2.1c-1-1.1-2-1-2.7,0.4c-0.1,0.1-0.1,0.3-0.2,0.4
		c-0.8,2.1-1.6,4.2-2.3,6.3c-0.9,2.6-0.9,5.2,0.1,7.8c0.1,0.2,0.1,0.3,0.1,0.5c-0.5,0.4-1,0.3-1.6,0.4c-1.4,0.4-1.7,0.9-1.1,2.2
		c0.8,0.7,1.4,1.5,2.1,2.3c0.5,0.6,0,0.5-0.4,0.6l0,0c0,0.1-0.1,0.1-0.1,0.1c-1,0.9-1.7,1.9-2.2,3.2c-1,2.7-1.4,5.4-1.4,8.2
		c0,0.9,0.2,1.7,0.9,2.4c0.6,0.4,1.3,0.4,1.9,0.5c0.1,0.3,0,0.6-0.2,0.9c0,0.2,0,0.4,0,0.5c0,0.6-0.1,0.9-0.8,1.1
		c-1.2,0.2-2.1,1-2.6,2.1c-0.5,1-0.7,2.1-0.6,3.3c0.2,2.3,1.1,4.3,2.5,6.1c0.5,0.6,0.9,1.1,1.4,1.6c0.4,0.4,0.4,0.7,0.1,1.1
		c-0.5,0.7-1,1.5-1.3,2.3c-0.2,0.3-0.2,0.7-0.6,1.1c-0.5-0.7-1-1.4-1.4-2.1c-2-3.1-3.8-6.4-5.6-9.6c-0.5-1-1.1-1.9-1.8-2.8
		C34.3,76,33,76.1,32,77.8c-0.5,0.9-0.9,2-1.4,2.9c-0.1,0.2-0.1,0.6-0.5,0.7c-1-0.6-2-1.2-3.2-1.6c-2-0.8-3.9-1.4-5.9-2.1
		c-1.1-0.3-2.1-0.7-3.2-1c-0.6-0.2-1.3-0.2-1.8,0.4c-0.5,0.6-0.4,1.2-0.1,1.8c0.2,0.5,0.4,1,0.5,1.5c0.4,1.9,0.7,3.8,1.6,5.6
		c-1.6,0.5-2.9,1.5-4.1,2.5c-0.8,0.7-1.5,1.5-2.2,2.3c-1.6,1.9-3.4,3.6-5.3,5.1c-0.6,0.5-1.2,0.9-1.7,1.5c-0.8,0.9-0.8,1.8,0.1,2.7
		c0.2,0.1,0.3,0.3,0.5,0.4c0.9,0.4,1.9,0.9,2.8,1.3c2.2,1.1,4.5,1.7,7,1.5c0.5,0,0.9,0,1.4,0c0,0.5-0.4,0.8-0.5,1.2
		c-0.1,1,0.3,1.6,1.2,1.9c2.3,0.1,4.6-0.1,6.9,0.2c0.9,0.1,1.7,0.3,2.6,0.5c0.4,0.1,0.8,0.1,1.1-0.3c0.4-0.5,1.1-0.8,1.5-1.4
		c-2.6-0.8-5.3-1.2-8.1-1.3c-0.5,0.1-1,0.1-1.5,0.1c-0.2,0-0.4,0.1-0.7-0.1c0.4-0.6,0.9-1,1.4-1.3c0.6-0.4,1.2-0.7,1.6-1.4
		c-0.3-1.1-0.7-1.4-1.6-1.1c-1.6,0.6-3.2,0.5-4.8,0.6c-2.6,0.2-5-0.3-7.2-1.7c-0.6-0.1-1-0.5-1.6-0.7C7,98.5,7.3,98.3,7.6,98
		c2.3-1.7,4.3-3.6,6.1-5.8c0.9-1.1,2-2.2,3.2-3.1c0.7-0.5,1.5-0.9,2.5-0.8c0.7,0.1,1-0.3,1.1-1c0-0.7,0-1.4-0.4-2
		c-0.3-0.5-0.5-1-0.7-1.6c-0.4-1.3-0.6-2.7-0.9-4.1c0.3-0.3,0.5-0.1,0.7,0c2.5,0.8,4.9,1.6,7.4,2.5c0.7,0.2,1.4,0.6,2,1
		c0.5,0.3,1,0.7,1.2,1.3l0,0c0.2,0,0.3,0.1,0.3,0.2c0.1,0,0.3,0.1,0.4,0.1c0.9,0.1,1.4-0.1,1.5-1.1c0.3-1.6,1-2.9,1.7-4.4
		c0.4,0.3,0.6,0.7,0.8,1c0.6,0.9,1.1,1.8,1.6,2.7c1.9,3.6,4,7,6.4,10.3c0.2,0.3,0.4,0.6,0.6,0.9c0.4,0.5,0.4,1,0.2,1.6
		c-0.7,2.1-1.2,4.2-0.8,6.5c0.3,1.6,1,3,2.2,4.1c0.5,0.5,0.7,1,0.4,1.6c-0.4,0.9-0.6,1.8-0.6,2.7c0,0.5-0.2,0.6-0.7,0.6
		c-1.1-0.1-2.2-0.1-3.2-0.4c-1-0.2-1.9-0.6-2.8-1.2c-1.2-0.9-2.6-1.6-4-2.2c-0.4-0.2-0.7-0.3-1-0.5c-0.1-0.2,0.1-0.3,0.1-0.4
		c0.1-0.2,0.1-0.3-0.1-0.5c-0.2-0.1-0.4-0.1-0.5,0c-0.7,0.7-1.3,0.3-2,0c-0.8,0.3-1.3,0.6-2.2,1.5c0.3,0.4,0.7,0.3,1.1,0.5
		c0.6,0.3,0.4,0.5,0,0.7c-0.2,0.4-0.5,0.8-0.7,1.2c-0.1,0.2-0.3,0.6,0,0.8c0.4,0.3,0.6-0.1,0.7-0.4c0.1-0.1,0.2-0.3,0.3-0.5
		c0.2-0.3,0.4-0.7,0.8-0.9c0.2-0.3,0.4-0.4,0.7-0.3c2,0.8,4,1.7,5.7,3c0,0,0,0.1,0,0.1c0.1,0.2,0.2,0.2,0.4,0.2
		c0.1,0.1,0.3,0.1,0.4,0.2c2.2,0.8,4.6,1.1,6.9,1.2c0.5,0,0.8,0.2,0.9,0.7c0.8,1.1,1.7,2.1,3,2.7l0,0c0.1,0.1,0.2,0.1,0.3,0.1
		c0.4,0.1,1.2,0.4,1.2,0.4s0.7,2.9,1.1,4.1c0.2,0.6,0.1,0.9-0.3,1.3c-1.3,1.1-2.2,2.4-2.6,4c-0.4,1.7,0.1,3.2,1.5,4.2
		c0.6,0.5,1.3,0.7,2,1c3.5,0.3,6.8-0.4,10.1-1.6c2.1-0.8,4.1-1.9,6-3.1c0.8-0.5,1.5-1.1,1.2-2.3c-0.1-0.4,0.2-0.5,0.5-0.5
		c1.1-0.2,2.1-0.3,3.2-0.5c3.2-0.4,6.3-0.7,9.5-0.9c0.3,0,0.7-0.3,0.8,0.2c0.3,1.7,1.3,2.9,2.7,3.7c0.7,0.4,1.4,0.8,2.2,1.1
		c3.6,1.2,7.3,1.8,11.2,1.7c0.5,0,1-0.1,1.4-0.4c0.3-0.3,0.6-0.3,1-0.5c2.2-1,3-2.7,2.3-5c-0.4-1.4-1.4-2.4-2.6-3
		c-0.3-0.1-0.6-0.3-0.9-0.4c-0.5-0.1-0.6-0.3-0.3-0.8c0.3-0.4,0.5-0.9,0.8-1.3c0.6-1.1,0.9-2.3,0.5-3.5c-0.1-0.4,0-0.7,0.2-1
		c1.5-2.8,2.2-5.9,2.6-9.1c0.5-4.6-0.1-9.1-2.2-13.3c-0.2-0.3-0.4-0.6-0.4-1.1c8.5,0.1,16.4-1.6,23.3-6.8c0.2-0.4,0.5-0.8,0.9-1.1
		c0.1-0.3,0.3-0.5,0.4-0.6l0,0c0-0.1,0.1-0.2,0.1-0.2c0,0,0.1-0.1,0.1-0.1c0.1-0.1,0.1-0.2,0.2-0.2c0-0.1,0.1-0.2,0.1-0.3
		c0,0,0-0.1,0.1-0.1c0.1-0.1,0.1-0.2,0.2-0.3l0,0c0.9-1.7,1.8-3.5,2.6-5.3c0.7-1.8,1.5-3.6,2.2-5.4c0-0.5,0.3-0.7,0.7-0.8
		c0.4-0.1,0.5,0.3,0.7,0.5c0.7,1,1,1.1,2.1,0.7c0.3-0.4,0.5-0.8,0.4-1.2c-0.3-0.8-0.1-1.5,0.1-2.2c0.2-0.8-0.1-1.7,0.1-2.5
		c-0.1-0.3-0.1-0.6,0.3-0.7c0.6-0.2,1-0.6,1.5-0.8c0-0.1,0.1-0.2,0.2-0.2l0,0c0-0.1,0.1-0.2,0.1-0.2c0,0,0.1-0.1,0.1-0.2
		c0.2-0.6,0.5-0.7,1.1-0.8c1.8-0.2,3.4-0.7,4.6-2.2c0.3-0.5,0.5-1.1,0.6-1.7C144.5,55.4,143.1,54.2,140.7,54.9 M121.2,46.5
		c0-0.1-0.1-0.2,0-0.2c0.5-1,2.5-2,3.6-1.8c0.5,0.1,0.8,0.5,0.7,1c0,0.1-0.2,0.2-0.4,0.2c-0.8,0.4-1.7,0.9-2.5,1.3
		C121.7,47.5,121.7,47.5,121.2,46.5 M121.9,50.3c-0.2-0.3-0.1-0.6,0.2-0.7c1.4-1,2.8-1.9,4.5-2.3c0.2-0.1,0.5-0.1,0.7,0
		c0.2,0.1,0.3,0.2,0.3,0.4c-0.1,0.2-0.2,0.3-0.4,0.4c-0.6,0.2-1.3,0.5-1.9,0.7c-0.9,0.4-1.8,0.9-2.7,1.4
		C122.4,50.4,122.1,50.5,121.9,50.3 M48.5,74c0-1.5,0.6-2.2,2.1-2.4c0.7-0.1,1.3-0.4,2-0.8c-0.5,1.5-1,2.7-1.2,4
		c-0.1,0.3-0.2,0.4-0.5,0.5c-0.4,0-0.7,0-1.1,0C48.5,75.3,48.4,75.3,48.5,74 M48.7,114.2c-0.1-0.1-0.2-0.1-0.2-0.2
		c-0.1,0.1-0.2,0.1-0.3,0c-0.9-0.9-1.5-2-1.5-3.5c0.5,0.3,0.9,0.5,1.3,0.8c0,0,0.1,0,0.1,0.1c3,1.1,5.7,0.6,8.2-1.3
		c0.1-0.1,0.2-0.1,0.3-0.1c0.3,0.3,0.4,0.6,0.4,1c0.5,0.4,0.3,0.9,0,1.4C55.5,115.3,51.5,116.7,48.7,114.2 M100.9,123.2
		c0.8,0.4,1.1,1.1,1.2,2.1c-0.5-1-1-1.6-1.8-2.1c-0.3,0-0.6,0-0.9,0c-0.3,0-0.6,0.2-0.6,0.6c0,0.3,0.2,0.5,0.5,0.6
		c1.2,0,1.5,1,1.8,1.9c0.1,0.4,0,0.7-0.4,0.8c-0.6,0.2-1.1,0.4-1.8,0.4c-0.9,0.2-1,0.2-1.1-0.5c-0.3-1.3-1-2.2-2.2-2.8
		c-0.2,0-0.4-0.1-0.6-0.1c-0.4,0-0.7,0-0.8,0.5c0,0.4,0.2,0.6,0.6,0.7c0.1,0,0.3,0.1,0.4,0.1c0.4,0.1,0.7,0.4,1,0.8
		c0.2,0.3,0.4,0.6,0.2,0.9c-0.2,0.3-0.5,0.1-0.8,0.1c-0.3,0-0.6-0.1-1-0.1c-2.3-0.2-4.6-0.7-6.8-1.5c-0.5-0.2-0.9-0.4-1.3-0.7
		c-0.4-0.2-0.7-0.6-0.9-1c-0.3-0.6-0.2-0.8,0.5-0.9c0.6,0,1.3,0,1.9-0.1c0.4,0,0.8,0,1.2-0.1c1.3-0.3,1.5-0.8,0.8-2
		c-0.4-0.1-0.8-0.2-1.2-0.1c-7.2,0.2-14.3,0.8-21.3,2c-0.4,0.1-0.7,0.1-1,0.3c-0.9,0.4-1,1.3-0.4,2c0,0,0.1,0.1,0.1,0.1
		c0.9,0.9,0.9,1-0.2,1.6c-2,1-4,1.9-6.2,2.5c-0.5,0.2-1.1,0.1-1.6,0.1c-0.4,0.2-0.9,0.5-1.2,0.2c-0.3-0.3,0.1-0.8,0.2-1.2
		c0.2-0.6,0.9-0.8,1.2-1.4c-0.5-0.7-0.8-0.8-1.4-0.3c-0.8,0.7-1.2,1.6-1.3,2.6c0,0.5-0.2,0.7-0.7,0.7c-0.8,0-1.6,0.1-2.4,0
		c-1.5-0.1-1.5-0.7-0.8-1.8c0.4-0.7,1.2-1,1.7-1.5c-0.1-0.4-0.2-0.6-0.6-0.8c-1.1,0.2-1.8,1-2.4,1.9c0.2-1.2,0.8-2.1,1.6-3
		c0.2-0.2,0.4-0.2,0.6,0c0.2,0.2,0.4,0.3,0.5,0.5c0.3,0.1,0.6,0.1,1,0.1c0.8-0.8,0.9-1,0.2-1.9c-1-1.4-1.4-3.1-1.9-4.7
		c-0.2-0.7,0-1,0.8-1.2c0.8-0.2,1.4-0.7,2-1.2c0.5-0.4,0.9-0.5,1.4-0.1c2.7,0.9,5.4,1.6,8.2,2c2.8,0.4,5.6,0.8,8.4,1
		c3.8,0.3,7.6,0.4,11.5,0.2c3.9-0.1,7.7-0.4,11.5-1.3c0.9-0.2,1.7-0.7,2.6-0.7c-0.1-0.1,0-0.1,0-0.1c0,0,0.1,0,0.1,0
		c0,0.1,0,0.1-0.1,0.1c-0.4,1.1-1,2.1-1.9,2.9c-0.1,0.1-0.3,0.2-0.4,0.4c-0.3,0.4-0.3,0.7,0,1.1c0.3,0.4,0.7,0.6,1,0.3
		c0.8-0.6,1.5-0.1,2.2,0.2C100.2,122.8,100.7,122.9,100.9,123.2 M69.9,115.6c0.5-1.3,1.1-2.5,1.7-3.7c0.9-1.7,1.8-3.4,2.5-5.3
		c0.1-0.3,0.3-0.6,0.7-0.5c4.5,0.3,8.9-0.3,13.3-0.4c0.5,0,1,0,1.5,0c0.4,0,0.6,0.1,0.7,0.5c0.6,2.5,1.5,4.9,1.8,7.5
		c0.2,1.8,0.1,1.8-1.6,1.9c-6.3,0.6-12.7,0.7-19,0.3C71,115.8,70.5,115.8,69.9,115.6 M129,71.7c-1.2,3-2.5,6-4.2,8.8
		c-0.9,1.5-2.2,2.7-3.7,3.5c-2.2,1.2-4.6,2.1-7,2.8c-2.1,0.6-4.1,1.1-6.2,1.4c-2.3,0.3-4.7,0.3-7,0.2c-0.3,0-0.5-0.1-0.6-0.3
		c-0.4-0.7-0.9-1.4-0.9-2.3c0-0.8-0.4-1.2-1-1.2c-0.6,0-1.1,0.5-1.1,1.2c0,0.6,0.2,1.1,0.4,1.7c0.4,0.9,0.9,1.8,1.3,2.6
		c2.3,4,3.5,8.3,3.3,12.9c-0.1,3.4-1,6.6-2.4,9.7c-0.7,1.5-1.7,2.1-3.3,2.2c-0.9,0.1-1.8,0.2-2.7,0.2c-0.3,0-0.6-0.1-0.5-0.5
		c0.2-2.5-0.9-4.7-1.4-7.1c-0.2-0.7-0.4-1.5-0.6-2.2c-0.3-1-0.4-1.1-1.4-1.1c-1.3,0-2.5,0-3.8,0.1c-2.8,0.2-5.6,0.4-8.3,0.5
		c-1.2,0.1-2.3,0.1-3.5-0.2c-0.5-0.1-0.8,0-0.9,0.5c-0.9,2.7-2.4,5-3.6,7.5c-0.3,0.6-0.6,1.2-0.8,1.9c-0.2,0.7-0.4,0.8-1.2,0.8
		c-2.7-0.3-5.3-0.7-7.9-1.4c-0.6-0.2-1.3-0.2-1.9-0.7c1.1-1.3,1.4-2.8,0.6-4.3c-0.2-0.3-0.2-0.5,0.2-0.7c2.7-1.4,3.3-4,3.8-6.7
		c0.4-2.4,0.4-4.8,0.6-7.2c0.1-1.5,0.2-3.1,0.3-4.6c0.1-1.1-0.2-1.6-0.8-1.6c-0.6-0.1-1.2,0.5-1.3,1.5c-0.2,2.3-0.4,4.6-0.6,6.9
		c-0.1,1.9-0.3,3.8-0.7,5.7c-0.2,0.8-0.4,1.5-0.7,2.3c-0.5,1.2-1.4,2-2.7,2.2c-1.9,0.4-3.9,0.4-5.8,0.1c-1-0.2-2-0.3-2.9-0.7
		c-2.4-1.3-3.7-3.5-3.4-6.3c0.1-1.2,0.4-2.3,0.8-3.4c1.2-3.3,2.9-6.4,5.1-9.1c0.6-0.8,1.3-1.5,2.1-2.1c0.2-0.1,0.3-0.3,0.5-0.4
		c0.3-0.3,0.3-0.7,0.1-1.1c-0.2-0.3-0.5-0.5-0.9-0.4c-0.4,0-0.7,0.2-1,0.4c-0.7,0.5-1.3,1.1-1.8,1.7c-0.6,0.6-0.7,0.6-1.3,0.2
		c-2.1-1.3-3.4-3.2-3.7-5.7c-0.1-0.8,0-1.5,0.3-2.2c0.2-0.5,0.6-0.8,1.2-0.7c2,0.3,4,0.2,6.1,0.1c1.2-0.1,2.5-0.3,3.7-0.5
		c1.5-0.3,3-0.3,4.5-0.1c2.3,0.3,4.5,1,6.7,1.7c4.2,1.3,8.5,2.4,12.8,3.1c3.2,0.5,6.5,0.5,9.7,0.3c2.2-0.2,4.3-0.4,6.4-0.9
		c1.7-0.5,3.4-1.1,4.8-2.2c0.4-0.4,0.7-0.2,1,0.1c0.8,0.9,0.7,2.1-0.1,3c-0.4,0.4-0.8,0.8-1,1.2c-0.2,0.4-0.3,0.8,0,1.2
		c0.3,0.4,0.7,0.4,1.2,0.2c1.6-0.6,2.6-2,2.6-3.7c0-1.5-0.5-2.8-1.6-3.8c-0.1-0.1-0.2-0.2-0.3-0.3c-0.1-0.1-0.2-0.2-0.2-0.4
		c0.1-0.2,0.2-0.3,0.4-0.3c0.3,0,0.5,0,0.8,0c1.6,0,3.3,0.1,4.9,0.1c0.8,0,1.5-0.1,2.3-0.2c1.1-0.3,1.6-1,1.6-2.1
		c0-0.6-0.2-1.2-0.4-1.8c-0.1-0.3-0.1-0.6,0.2-0.9c2-1.7,4-3.5,6.1-5.2c0.7-0.6,1.5-1.2,2.5-1.7c0.1,1.5,0.3,2.8,1.2,3.9
		c0.9,1.1,1.9,2,3.2,2.7c1.3,0.6,2.6,0.8,4,0.6C129.2,71.4,129.1,71.6,129,71.7 M129.2,61.7c-0.1,0.3-0.2,0.5-0.4,0.7
		c-0.3,0.4-0.6,0.5-0.9,0c-0.3-0.4-0.6-0.6-1.1-0.5c-0.5,0.1-0.7,0.6-0.7,1.1c0.3,0.6,0.7,1.2,1.3,1.5c0.5,0.3,0.8,0.8,1.3,1.9
		c-0.2,0.2-0.5,0.1-0.7,0c-1.5,0-2.6-0.5-3.1-2c-0.3-0.7-0.7-1.3-0.9-1.9c-0.2-0.4-0.4-0.8-0.2-1.2c0.2-0.9,1-1.2,1.8-1.4
		c0.5-0.9,1.5-1.3,2.5-1.1c0.9,0.2,1.5,1,1.5,2.1C129.4,61.2,129.4,61.5,129.2,61.7 M126.9,57c-0.5,0.1-0.8,0-1-0.5
		c-0.6-1.4-1.4-2.7-1.9-4.1c-0.1-0.2-0.3-0.3-0.3-0.6c-0.1-0.1-0.2-0.2-0.1-0.4c0.1-0.1,0.2-0.1,0.2,0c-0.1-0.2,0.1-0.3,0.2-0.4
		c0.8-0.5,1.7-0.9,2.7-1.2c0.5-0.2,0.8-0.1,1,0.4c0.7,1.7,1.5,3.3,2.3,5c0.3,0.8,0.7,1.6,1,2.4c0.3,0.6,0.3,1.1,0.2,1.8
		c-0.3-0.1-0.3-0.5-0.5-0.7C129.9,57.4,128.6,56.7,126.9,57 M129.7,64.6c-0.1-0.2,0-0.3,0.1-0.5c0.9-0.8,1.4-1.9,1.5-3.2
		c0.4,0.6,0.8,1,1.2,1.3c0.7,0.4,0.6,0.9-0.1,1.2c-0.8,0.4-1.6,0.7-2.3,1.2C130,64.7,129.8,64.7,129.7,64.6 M133.4,67.4
		c0,0-0.1,0-0.2,0.1c-0.9-0.2-1.5-0.8-2.2-1.4c-0.3-0.1-0.4-0.3-0.1-0.5c0.7-0.4,1.5-0.8,2.4-1.1C133.6,65.5,133.5,66.4,133.4,67.4
		 M134,60.5c-0.5,0.3-0.9,0.1-1-0.5c-0.1-0.4-0.1-0.8,0-1.2c0.2-0.8,0.2-1.5-0.3-2.2c-0.2-0.2-0.2-0.5-0.3-0.8
		c-0.3-0.4-0.4-0.7,0.3-0.8c2.3-0.4,3.3,1.5,2.6,2.9c-0.2,0.3-0.2,0.7-0.2,1C134.9,59.6,134.6,60.2,134,60.5 M136.5,61.6
		c-0.3,0.5-0.7,0.7-1.3,0.7c-0.3,0.1-0.5-0.1-0.3-0.4c0.2-0.2,0.5-0.5,0.8-0.5c0-0.1,0.1-0.2,0.2-0.2c0.1-0.1,0.2-0.3,0.3-0.4
		c0.1-0.2,0.2-0.5,0.3-0.6C136.9,60.9,136.9,60.9,136.5,61.6 M142.5,58.2C142.4,58.3,142.4,58.3,142.5,58.2
		c-0.3,0.8-0.9,1.1-1.6,1.4c-0.5,0.2-0.9,0.3-1.5,0.4c-0.9,0.1-0.9,0.1-1.2-0.7c-0.1-0.3-0.3-0.5-0.4-0.8c-0.2-0.1-0.4-0.2-0.5-0.5
		c1.2-0.5,2.4-1,3.6-1.4c0.5-0.2,1.1-0.4,1.5,0C142.8,57.1,142.7,57.7,142.5,58.2"/>
	<path class="st2" d="M67.3,30.1c-1.2,1-3,2.6-3.9,3.9c-0.9,1.2-1.7,2.4-2.2,3.8c0.4-0.1,0.4-0.4,0.5-0.6c1.4-2.4,3.3-4.4,5.4-6.2
		c0.1-0.1,0.2-0.2,0.4-0.3c-0.1,0,1.7-1.5,0.4-0.9C67.7,29.9,67.6,30.1,67.3,30.1"/>
	<path class="st2" d="M72.2,30.1h-0.7c0.4,0.8,1.2,2.7,1.4,3.5c0.2,1.2,0.3,2.5,0.3,3.7c0,0,0,0,0,0c0-1.4,0-2.7-0.2-4.1
		C72.9,32.5,72.4,30.8,72.2,30.1"/>
	<path class="st2" d="M85,27.2c-0.4,0.1-0.8,0.1-1.2,0.2c-0.3,0.1-0.6,0.1-0.8,0.2c-0.8,0.1-1.4,0.2-2-0.6c-0.4-0.6-1.1-0.8-1.8-0.8
		c-0.6,0-0.9,0.3-1,0.9c1.1-0.4,1.7-0.3,2.6,0.7c-0.7,0.1-1.4,0.2-2,0.2c-0.6,0-1.3,0.1-1.9,0.1c-0.9,0.1-1,0.3-1.1-0.9
		c-0.2,1-0.2,1-1.2,1c-0.4,0-0.8,0-1.3,0c-2.1,0.1-4.2,0.1-6.3-0.2c-0.1,0.1-0.1,0.1-0.2,0.2c0,0,0,0,0,0.1c0.2,0,0.4,0.1,0.6,0.1
		c0.4,0,0.8,0.1,1.1,0.1c0.1,0,0.2,0,0.4,0.1c0.3,0,0.6,0,0.9,0c0.3,0,0.6,0.1,0.8,0.4h4.3c0,0,0.1,0,0.1,0c0,0,0.1,0,0.1,0h4.1
		c0.1,0,0.1,0,0.2,0c0.1-0.2,0.4-0.4,0.6-0.5c1.7-0.3,3.4-0.5,5.1-0.7C85,27.6,85,27.4,85,27.2"/>
	<path class="st2" d="M111.9,120.3c-0.4-0.2-0.6,0-0.8,0c-0.5,0.1-1.1,0.2-1.6,0.1c-1.8-0.4-2.7-2-1.8-3.7c0.3-0.5,0.4-1,0.2-1.6
		c-0.4-1.2,0.2-2.5,1.3-3.2c1.2-0.8,2.8-0.7,3.7,0.3c0.5,0.5,0.9,0.8,1.6,0.8c1.4,0,2.5,1,2.7,2.2c0.2,1.4-0.4,2.8-1.8,3.2
		c-1.4,0.4-1.5,1.1-1.6,2.3c-0.2,2.1-0.9,4.1-1.8,6c-0.1,0.3-0.3,0.7-0.6,0.9c-0.3,0.3-0.7,0.3-1.1,0.1c-0.4-0.2-0.5-0.6-0.4-1
		c0.1-0.3,0.2-0.5,0.3-0.8c0.6-1.4,1.2-2.8,1.5-4.3C111.8,121.1,111.8,120.7,111.9,120.3 M113.6,116.9c0.4,0,0.8-0.1,1.1-0.3
		c0.5-0.3,0.7-0.7,0.6-1.1c-0.1-0.5-0.6-0.6-1-0.7c-0.3-0.1-0.6,0.1-0.9,0.2c-0.8,0.3-1.2,0.1-1.5-0.7c0-0.1-0.1-0.2-0.1-0.3
		c-0.1-0.5-0.4-0.7-0.8-0.7c-0.5,0-1.1,0.3-1.2,0.7c-0.2,0.4,0.1,0.6,0.3,0.9c0.7,0.7,0.6,1.3-0.1,1.9c-0.2,0.2-0.5,0.4-0.6,0.7
		c-0.1,0.3-0.1,0.6,0.2,0.7c0.6,0.3,1.7,0,2-0.6c0.5-1.1,0.5-1.1,1.7-1C113.3,116.9,113.5,116.9,113.6,116.9"/>
	<path class="st2" d="M34.5,125.8c-1.8-0.1-3.1-1.6-3-3.3c0.1-0.7,0.3-1.3,0.9-1.6c0.4-0.3,0.5-0.6,0.5-1.1c0-1.2,0.6-2.1,1.6-2.6
		c1.3-0.7,2.7-0.3,3.6,1c0.4,0.5,0.7,0.8,1.4,0.7c1-0.1,1.8,0.5,2.2,1.4c0.4,0.9,0.4,1.7-0.2,2.5c-0.1,0.1-0.2,0.2-0.3,0.3
		c-0.7,0.5-1.1,1.1-1.3,2c-0.3,1-1.1,1.6-2.2,1.8c-0.5,0.1-0.7,0.3-0.6,0.8c0,0.7,0.1,1.4,0.3,2.1c0.1,0.3,0.2,0.6,0.1,0.9
		c-0.2,0.6-1,0.7-1.4,0.2c-0.3-0.3-0.5-0.8-0.6-1.3c-0.2-1-0.3-2-0.3-3C35.2,125.9,35.2,125.9,34.5,125.8 M35.8,118.7
		c-0.4,0-0.6,0.2-0.8,0.6c-0.2,0.3-0.2,0.6,0,0.9c0.4,0.4,0.4,0.9,0.3,1.4c-0.2,0.7-0.7,0.8-1.3,0.7c-0.2,0-0.4,0.1-0.5,0.3
		c-0.1,0.5,0.1,0.9,0.5,1.1c0.3,0.2,0.6,0.2,0.9-0.1c0.8-0.7,1.3-0.5,1.6,0.5c0.2,0.7,0.5,0.9,0.9,0.8c0.5-0.1,0.8-0.5,0.7-1.1
		c-0.2-0.9,0.2-1.3,0.9-1.6c0.2-0.1,0.5-0.2,0.7-0.4c0.3-0.2,0.6-0.5,0.3-0.9c-0.3-0.5-0.7-0.3-1-0.1c-0.1,0.1-0.2,0.1-0.3,0.2
		c-0.9,0.6-1.6,0.3-1.8-0.8c0-0.2-0.1-0.5-0.2-0.7C36.5,119.2,36.3,118.8,35.8,118.7"/>
	<path class="st2" d="M100.9,129.6c0.3-0.3,0.6-0.3,1-0.5c2.2-1,3-2.7,2.3-5c-0.4-1.4-1.4-2.4-2.6-3c-0.3-0.1-0.6-0.3-0.9-0.4
		c-0.5-0.1-0.6-0.3-0.3-0.8c0.3-0.4,0.5-0.9,0.7-1.3c0.6-1.1,0.9-2.3,0.5-3.5c-0.1-0.4,0-0.7,0.2-1c1.5-2.8,2.2-5.9,2.6-9.1
		c0.5-4.6-0.1-9.1-2.2-13.3c-0.2-0.3-0.4-0.6-0.4-1.1c8.5,0.1,16.4-1.6,23.3-6.8c0,0.5-0.4,0.7-0.7,1c-1,0.9-2.1,1.6-3.2,2.2
		c-5.4,2.7-11.1,4.3-17.2,4.3c-1.4,0-1.4,0-0.8,1.4c0.9,1.9,1.3,4,1.7,6c0.9,4.5,0.1,8.8-1.1,13c-0.2,0.8-0.5,1.6-1.1,2.2
		c-0.3,0.3-0.4,0.7-0.3,1.1c0.4,1.3,0.1,2.5-0.5,3.6c-0.3,0.5-0.6,1.1-0.9,1.6c0.4,0.4,0.9,0.5,1.4,0.7c1.8,0.9,2.8,2.4,2.9,4.5
		c0.1,1.3-0.4,2.3-1.4,3C103,129.1,102,129.5,100.9,129.6"/>
	<path class="st2" d="M134.3,47.9c-0.4,0-0.7-0.2-0.9-0.5c-0.2-0.4-0.4-0.8-0.5-1.3c-0.3-1.3-1.2-2.3-2.4-3
		c-0.2-0.1-0.5-0.2-0.7-0.4c-0.8-0.6-0.9-1.3-0.1-2c0.7-0.6,1.2-1.2,1.6-2c0.4-0.7,0.6-1.5,0.6-2.4c0-0.1,0-0.3,0-0.4
		c0-0.5,0.2-0.9,0.7-1.1c0.5-0.1,0.9,0.1,1.1,0.8c0.4,1.3,1.1,2.4,2,3.4c0.5,0.6,1.1,1.1,1.8,1.5c1,0.5,1,1.5,0.1,2
		c-1.3,0.8-1.9,2-2.3,3.4c-0.1,0.3-0.1,0.7-0.2,1.1C135,47.6,134.7,47.8,134.3,47.9 M133.3,39.4c-0.5,0.7-0.8,1.4-1.3,2
		c-0.1,0.2-0.1,0.3,0,0.5c0.8,0.5,1.4,1.2,2,2c0.4-0.7,0.8-1.3,1.3-1.8c0.2-0.2,0.2-0.4,0-0.5C134.6,40.9,134,40.2,133.3,39.4"/>
	<path class="st2" d="M123.7,41c-0.5,0-0.8-0.3-1-0.7c-0.4-0.6-0.8-1.2-1.2-1.8c-0.5-0.8-1.1-1.4-2.1-1.8c-1.1-0.5-1.1-1.4-0.2-2.2
		c1.2-1.1,2.1-2.3,2.4-4c0-0.2,0.1-0.4,0.2-0.6c0.2-0.4,0.5-0.5,0.9-0.5c0.4,0,0.6,0.2,0.7,0.6c0.1,0.4,0.2,0.8,0.4,1.2
		c0.4,1.2,1.1,2,2.3,2.4c0.4,0.2,0.9,0.3,1.3,0.6c0.8,0.5,0.8,1.2,0,1.7c-1.4,1.1-2.4,2.4-2.7,4.2C124.5,40.7,124.1,41,123.7,41
		 M120.8,35.4c1.1,0.7,1.7,1.6,2.5,2.6c0.6-1,1.3-1.8,2-2.7c-1.1-0.6-2-1.2-2.7-2.3C122.1,33.8,121.5,34.6,120.8,35.4"/>
	<path class="st2" d="M52,132.2c3.5,0.3,6.8-0.4,10.1-1.6c2.1-0.8,4.1-1.9,6-3.1c0.8-0.5,1.5-1.1,1.2-2.3c-0.1-0.4,0.2-0.5,0.5-0.5
		c1.1-0.2,2.1-0.3,3.2-0.5c3.2-0.4,6.3-0.7,9.5-0.9c0.3,0,0.7-0.3,0.8,0.2c-3.5,0.4-7.1,0.7-10.6,1.2c-0.7,0.1-1.5,0.2-2.3,0.4
		c0.5,1.8-0.6,2.6-1.8,3.4c-3.8,2.2-7.8,3.6-12.2,4.2c-0.9,0.1-1.9,0.2-2.8,0C53,132.7,52.4,132.6,52,132.2"/>
	<path class="st1" d="M83.8,27.4c-0.3,0.1-0.6,0.1-0.8,0.2c-0.8,0.1-1.4,0.2-2-0.6c-0.4-0.6-1.1-0.8-1.8-0.8c-0.6,0-0.9,0.3-1,0.9
		c0.3,0.3,0.5,0.6,0.6,0.9c-0.6,0-1.3,0.1-1.9,0.1c-0.9,0.1-1,0.3-1.1-0.9c0.3-3.3,3.7-4.1,5.9-2.7C82.6,25.2,83.4,26.1,83.8,27.4"
		/>
	<path class="st2" d="M42.1,128c0.4-2.1,0.9-4.2,2.1-6.1c0.3-0.4,0.5-0.8,0.9-1.1c0.4-0.3,0.8-0.3,1.2,0c0.3,0.3,0.3,0.7,0.2,1.1
		c-0.1,0.1-0.2,0.2-0.2,0.4c-1.5,2.1-2.1,4.5-2.1,7c0,0.1,0,0.3,0,0.4c0,0.5-0.3,0.8-0.8,0.9c-0.5,0.1-0.8-0.2-1-0.6
		C42,129.4,42,128.7,42.1,128"/>
	<path class="st2" d="M17.2,106.7c2.3,0.1,4.6-0.1,6.9,0.2c0.9,0.1,1.7,0.3,2.6,0.5c0.4,0.1,0.8,0.1,1.1-0.3
		c0.4-0.5,1.1-0.8,1.5-1.4c0.4,0,0.6-0.3,0.9-0.4c0.2-0.1,0.5-0.2,0.7,0.1c0.1,0.2,0,0.4-0.1,0.6c-0.1,0.1-0.1,0.2-0.2,0.3
		c-0.8,0.3-1.3,0.7-2.2,1.5c0.2,0.4,0.7,0.3,1.1,0.5c0.6,0.3,0.4,0.5,0,0.7c-0.1,0-0.2-0.1-0.3-0.1c-1.7-0.5-1.5-0.6-2.4,0.9
		c-0.2,0.3-0.3,0.8-0.8,0.5c-0.4-0.3,0-0.6,0.1-0.9c0.1-0.3,0.5-0.6,0.4-1c-1.5-0.3-3-0.4-4.5-0.4c-1.1,0-2.2,0.1-3.2,0
		C18,107.9,17.3,107.7,17.2,106.7"/>
	<path class="st2" d="M113.1,127.1c0.1-0.3,0.1-0.6,0.2-1c0.4-1.3,0.9-2.6,1.7-3.8c0.1-0.2,0.3-0.4,0.4-0.6c0.4-0.4,0.9-0.4,1.3-0.1
		c0.4,0.3,0.5,0.8,0.2,1.2c-0.7,1.1-1.2,2.2-1.6,3.4c-0.1,0.4-0.2,0.8-0.3,1.3c-0.2,0.7-0.5,1-1,0.9
		C113.5,128.3,113.1,127.8,113.1,127.1"/>
	<path class="st2" d="M33,130.6c-0.1,0.6-0.7,1-1.3,0.6c-0.4-0.2-0.5-0.6-0.8-0.9c-0.6-1-1.2-2-2.1-2.8c-0.4-0.4-0.5-0.9-0.2-1.2
		c0.3-0.4,0.8-0.5,1.4-0.1c0.4,0.2,0.7,0.5,0.9,0.9c0.7,0.8,1.2,1.7,1.8,2.6C32.8,129.9,33,130.2,33,130.6"/>
	<path class="st2" d="M5.3,100.7c0.9,0.4,1.9,0.9,2.8,1.3c2.2,1.1,4.5,1.7,7,1.5c0.5,0,0.9,0,1.4,0c0,0.5-0.4,0.8-0.5,1.2
		c-3.6,0.3-6.7-1.3-9.7-2.9C5.8,101.7,5.3,101.3,5.3,100.7"/>
	<path class="st1" d="M69.8,26.5c-1.2,0-4.1,1.8-4.1,1.8c2.1,0.3,6.2,0.1,8.3,0C73.1,26.6,70.9,26.5,69.8,26.5"/>
	<path class="st2" d="M120,126.1c-0.1,0.7-0.3,1.4-0.6,2.1c-0.2,0.4-0.6,0.6-1.1,0.5c-0.4-0.1-0.7-0.6-0.6-1.1
		c0.1-0.6,0.3-1.2,0.5-1.8c0.2-0.6,0.5-0.9,1-0.8C119.7,125,120,125.4,120,126.1"/>
	<path class="st2" d="M120,49.4c0.3,1.1,0.6,2.2,1.7,2.7c0.1,0.1,0.2,0.2,0.3,0.3c0.8,1.6,1.5,3.2,2.3,4.8c0.2,0.4,0.1,0.6-0.3,0.7
		c-0.6-1.2-1.1-2.3-1.7-3.5c-0.4-0.8-0.8-1.6-1.6-2.3C119.9,51.6,119.5,50.6,120,49.4"/>
	<path class="st2" d="M37.8,112.4c2.2,0.8,4.6,1.1,6.9,1.2c0.5,0,0.8,0.2,0.9,0.7c-2.4,0.1-4.7-0.4-6.9-1.1
		C38.3,113.1,38,112.8,37.8,112.4"/>
	<path class="st2" d="M139.6,68.5c0,0.6-0.5,1.1-1.1,1.1c-0.6,0-1.3-0.6-1.3-1.2c0-0.6,0.5-1.2,1.2-1.2
		C139,67.2,139.6,67.8,139.6,68.5"/>
	<path class="st2" d="M138,62.6c0.2-0.6,0.5-0.7,1.1-0.8c1.8-0.2,3.4-0.7,4.6-2.2c-0.4,1.2-1.3,1.8-2.3,2.3
		C140.4,62.4,139.2,62.6,138,62.6"/>
	<path class="st2" d="M30.5,109.2c0.2-0.3,0.4-0.4,0.7-0.3c2,0.8,4,1.7,5.7,3c0,0,0,0.1,0,0.1C34.9,110.9,32.7,110,30.5,109.2"/>
	<path class="st2" d="M131.8,70.1c0-0.5,0.3-0.7,0.7-0.8c0.4-0.1,0.5,0.3,0.7,0.5c0.7,1,1,1.1,2.1,0.7c-0.4,1-1.1,1.3-1.9,0.6
		c-0.3-0.2-0.4-0.5-0.6-0.7C132.5,70.1,132.2,70,131.8,70.1"/>
	<path class="st2" d="M141.4,71.6c-0.4,0-0.8-0.3-0.9-0.8c0-0.4,0.3-0.8,0.8-0.9c0.4,0,0.8,0.3,0.9,0.8
		C142.2,71.2,141.8,71.6,141.4,71.6"/>
	<path class="st2" d="M139.1,71.8c0,0.4-0.4,0.8-0.9,0.8c-0.4,0-0.8-0.4-0.8-0.8c0-0.4,0.4-0.8,0.9-0.8
		C138.7,71,139.1,71.4,139.1,71.8"/>
	<path class="st2" d="M45.7,54.9c0.8,0.7,1.4,1.5,2.1,2.3c0.5,0.6,0,0.5-0.4,0.6c0-0.7-0.7-1-1-1.5C46.1,55.9,45.6,55.5,45.7,54.9"
		/>
	<path class="st2" d="M119.3,46.3c0.1,0.7,0.3,1.3,0.7,1.8c0.3,0.4,0.2,0.7,0,1.1C119.2,48.3,118.7,47.4,119.3,46.3"/>
	<path class="st2" d="M44.6,71.7c0.6,0.4,1.3,0.4,1.9,0.5c0.1,0.3,0,0.6-0.2,0.9C45.5,72.9,44.8,72.6,44.6,71.7"/>
	<path class="st2" d="M135.8,64.6c-0.1-0.3-0.1-0.6,0.3-0.7c0.6-0.2,1-0.6,1.5-0.8C137.4,64.1,136.6,64.4,135.8,64.6"/>
	<path class="st2" d="M125,83.8c0.2-0.5,0.5-0.8,0.9-1.1C125.7,83.2,125.6,83.6,125,83.8"/>
	<path class="st2" d="M125.9,82.7c0.1-0.3,0.3-0.5,0.5-0.7C126.3,82.3,126.2,82.6,125.9,82.7"/>
	<path class="st2" d="M126.5,81.7c0.1-0.1,0.1-0.2,0.2-0.2C126.6,81.6,126.6,81.7,126.5,81.7"/>
	<path class="st2" d="M126.8,81.2C126.8,81.2,126.8,81.2,126.8,81.2C126.9,81.2,126.9,81.2,126.8,81.2"/>
	<path class="st2" d="M37.4,112.2L37.4,112.2L37.4,112.2z"/>
	<path class="st2" d="M137.8,63c0-0.1,0.1-0.2,0.1-0.2C137.9,62.8,137.8,62.9,137.8,63"/>
	<path class="st2" d="M47.4,57.8c0,0.1-0.1,0.1-0.1,0.1C47.3,57.9,47.3,57.8,47.4,57.8"/>
	<path class="st2" d="M127.1,80.8L127.1,80.8L127.1,80.8z"/>
	<path class="st2" d="M137.6,63.2c0-0.1,0.1-0.2,0.2-0.2C137.8,63.1,137.7,63.2,137.6,63.2"/>
	<path class="st2" d="M126.3,82.1c0-0.1,0.1-0.2,0.1-0.2C126.4,81.9,126.4,82,126.3,82.1"/>
	<path class="st2" d="M48.7,117C48.7,117,48.6,117,48.7,117L48.7,117z"/>
	<path class="st2" d="M58,113.4c1.1-1.3,1.4-2.8,0.6-4.3c-0.2-0.3-0.2-0.5,0.2-0.7c2.7-1.4,3.3-4,3.8-6.7c0.4-2.4,0.4-4.8,0.6-7.2
		c0.1-1.5,0.2-3.1,0.3-4.6c0.1-1.1-0.2-1.6-0.8-1.6c-0.6-0.1-1.2,0.5-1.3,1.5c-0.2,2.3-0.4,4.6-0.6,6.9c-0.1,1.9-0.3,3.8-0.7,5.7
		c-0.2,0.8-0.4,1.5-0.7,2.3c-0.5,1.2-1.4,2-2.7,2.2c-1.9,0.4-3.9,0.4-5.8,0.1c-1-0.2-2-0.3-2.9-0.7c-2.4-1.3-3.7-3.5-3.4-6.3
		c0.1-1.2,0.4-2.3,0.8-3.4c1.2-3.3,2.9-6.4,5.1-9.1c0.6-0.8,1.3-1.5,2.1-2.1c0.2-0.1,0.3-0.3,0.5-0.4c0.3-0.3,0.3-0.7,0.1-1.1
		c-0.2-0.3-0.5-0.5-0.9-0.4c-0.4,0-0.7,0.2-1,0.4c-0.7,0.5-1.3,1.1-1.8,1.7c-0.6,0.6-0.7,0.6-1.3,0.2c-2.1-1.3-3.4-3.2-3.7-5.7
		c-0.1-0.8,0-1.5,0.3-2.2c0.2-0.5,0.6-0.8,1.2-0.7c2,0.3,4,0.2,6.1,0.1c1.2-0.1,2.5-0.3,3.7-0.5c1.5-0.3,3-0.3,4.5-0.1
		c2.3,0.3,4.5,1,6.7,1.7c4.2,1.3,8.5,2.4,12.8,3.1c3.2,0.5,6.5,0.5,9.7,0.3c2.2-0.2,4.3-0.4,6.4-0.9c1.7-0.5,3.4-1.1,4.8-2.2
		c0.4-0.4,0.7-0.2,1,0.1c0.8,0.9,0.7,2.1-0.1,3c-0.4,0.4-0.8,0.8-1,1.2c-0.2,0.4-0.3,0.8,0,1.2c0.3,0.4,0.7,0.4,1.2,0.2
		c1.6-0.6,2.6-2,2.6-3.7c0-1.5-0.5-2.8-1.6-3.8c-0.1-0.1-0.2-0.2-0.3-0.3c-0.1-0.1-0.2-0.2-0.2-0.4c0.1-0.2,0.2-0.3,0.4-0.3
		c0.3,0,0.5,0,0.8,0c1.6,0,3.3,0.1,4.9,0.1c0.8,0,1.5-0.1,2.3-0.2c1.1-0.3,1.6-1,1.6-2.1c0-0.6-0.2-1.2-0.4-1.8
		c-0.1-0.3-0.1-0.6,0.2-0.9c2-1.7,4-3.5,6.1-5.2c0.7-0.6,1.5-1.2,2.5-1.7c0.1,1.5,0.3,2.8,1.2,3.9c0.9,1.1,1.9,2,3.2,2.7
		c1.3,0.6,2.6,0.8,4,0.6c0.1,0.3,0,0.4,0,0.6c-1.2,3-2.5,6-4.2,8.8c-0.9,1.5-2.2,2.7-3.7,3.5c-2.2,1.2-4.6,2.1-7,2.8
		c-2.1,0.6-4.1,1.1-6.2,1.4c-2.3,0.3-4.7,0.3-7,0.2c-0.3,0-0.5-0.1-0.6-0.3c-0.4-0.7-0.9-1.4-0.9-2.3c0-0.8-0.4-1.2-1-1.2
		c-0.6,0-1.1,0.5-1.1,1.2c0,0.6,0.2,1.1,0.4,1.7c0.4,0.9,0.9,1.8,1.3,2.6c2.3,4,3.5,8.3,3.3,12.9c-0.1,3.4-1,6.6-2.4,9.7
		c-0.7,1.5-1.7,2.1-3.3,2.2c-0.9,0.1-1.8,0.2-2.7,0.2c-0.3,0-0.6-0.1-0.5-0.5c0.2-2.5-0.9-4.7-1.4-7.1c-0.2-0.7-0.4-1.5-0.6-2.2
		c-0.3-1-0.4-1.1-1.4-1.1c-1.3,0-2.5,0-3.8,0.1c-2.8,0.2-5.6,0.4-8.3,0.5c-1.2,0.1-2.3,0.1-3.5-0.2c-0.5-0.1-0.8,0-0.9,0.5
		c-0.9,2.7-2.4,5-3.6,7.5c-0.3,0.6-0.6,1.2-0.8,1.9c-0.2,0.7-0.4,0.8-1.2,0.8c-2.7-0.3-5.3-0.7-7.9-1.4
		C59.3,113.9,58.6,113.9,58,113.4 M55.2,79.6c-0.1,0.5-0.5,0.4-0.8,0.6c-0.2,0.2-0.5,0.3-0.4,0.6c0.1,0.3,0.4,0.3,0.6,0.2
		c0.7-0.3,1.3-0.6,2-0.8c0.2-0.1,0.4-0.3,0.3-0.5c-0.1-0.3-0.3-0.2-0.5-0.2C56,79.4,55.7,79.9,55.2,79.6c-0.2-0.3,0.1-0.3,0.3-0.4
		c0.6-0.3,1.2-0.5,1.8-0.8c0.2-0.1,0.3-0.2,0.2-0.4c0-0.2-0.2-0.3-0.4-0.3c-0.9,0.3-1.8,0.6-2.7,1.1c-0.2,0.1-0.2,0.3-0.2,0.5
		c0.1,0.2,0.2,0.2,0.4,0.2C54.8,79.5,55.1,79.3,55.2,79.6 M78.4,90.6c0,1.1-0.2,2,0.3,2.8c0.2,0.3-1.1,0.7-1.2,1.1
		c-0.1,0.5,0.3,0.8,0.7,0.9c0.6,0.1,0.7-0.3,0.9-0.7c0.1-0.4,0-0.8,0.4-1.1c1.1-0.7,1.2-1.8,1.2-3c0-1-0.1-1.9,0.1-2.9
		c0.1-0.3-0.1-0.5-0.3-0.6c-0.8-0.3-1.7-0.7-2.6-0.9c-0.4-0.1-0.7,0.1-0.7,0.5c0.1,0.6,1.7,0.3,1.6,0.9
		C78.7,88.3,78.5,89.8,78.4,90.6 M101.8,86.3c0.1,0,0.1,0,0.2,0c0.7-0.5,1.4-0.9,2-1.4c0.2-0.1,0.2-0.3,0.1-0.5
		c-0.1-0.2-0.3-0.2-0.5-0.1c-0.4,0.2-0.8,0.5-1.2,0.7c-0.3,0.2-0.6,0.4-0.9,0.6c-0.1,0.1-0.1,0.2-0.1,0.4
		C101.5,86.2,101.6,86.2,101.8,86.3"/>
	<path class="st2" d="M69.9,115.6c0.5-1.3,1.1-2.5,1.7-3.7c0.9-1.7,1.8-3.4,2.5-5.3c0.1-0.3,0.3-0.6,0.7-0.5
		c4.5,0.3,8.9-0.3,13.3-0.4c0.5,0,1,0,1.5,0c0.4,0,0.6,0.1,0.7,0.5c0.6,2.5,1.5,4.9,1.8,7.5c0.2,1.8,0.1,1.8-1.6,1.9
		c-6.3,0.6-12.7,0.7-19,0.3C71,115.8,70.5,115.8,69.9,115.6"/>
	<path class="st2" d="M29.9,84.4c-3-1.6-6.3-2.3-9.4-3.4c-0.2-0.1-0.4-0.1-0.6-0.2c-0.4-0.1-0.6,0.1-0.5,0.4
		c0.4,1.9,0.6,3.8,1.7,5.5c0.4,0.6,0.4,1.2,0.3,1.9c0,0.6-0.4,1-1,0.9c-1.2-0.1-2,0.5-2.8,1.1c-1.2,0.9-2.2,2.1-3.2,3.2
		c-1.6,2-3.4,3.7-5.4,5.3c-0.2,0.1-0.3,0.3-0.5,0.4c-0.6-0.1-1-0.5-1.6-0.7C7,98.5,7.3,98.3,7.6,98c2.3-1.7,4.3-3.6,6.1-5.8
		c0.9-1.1,2-2.2,3.2-3.1c0.7-0.5,1.5-0.9,2.5-0.8c0.7,0.1,1-0.3,1.1-1c0-0.7,0-1.4-0.4-2c-0.3-0.5-0.5-1-0.7-1.6
		c-0.4-1.3-0.6-2.7-0.9-4.1c0.3-0.3,0.5-0.1,0.7,0c2.5,0.8,4.9,1.6,7.4,2.5c0.7,0.2,1.4,0.6,2,1C29.2,83.4,29.7,83.7,29.9,84.4"/>
	<path class="st2" d="M123.9,51.5c-0.2-0.2,0.1-0.3,0.2-0.4c0.8-0.5,1.7-0.9,2.7-1.2c0.5-0.2,0.8-0.1,1,0.4c0.7,1.7,1.5,3.3,2.2,5
		c0.4,0.8,0.7,1.6,1,2.4c0.3,0.6,0.3,1.1,0.2,1.8c-0.3-0.1-0.3-0.5-0.5-0.7c-0.9-1.4-2.2-2.1-3.8-1.8c-0.5,0.1-0.8,0-1-0.5
		c-0.6-1.4-1.4-2.7-1.9-4.1c0.9-0.6,1.8-1,2.8-1.3c0.2-0.1,0.5-0.1,0.4-0.4c-0.1-0.3-0.4-0.3-0.6-0.2c-0.7,0.2-1.4,0.5-2.1,0.8
		C124.4,51.5,124.2,51.7,123.9,51.5"/>
	<path class="st2" d="M93.9,33.6c0.1-0.8,0.2-1.6,0.2-2.4c-0.1-0.6-0.2-0.8-0.8-0.5c-0.4,0.2-0.8,0.4-1.2,0.7
		c-0.9,0.6-1.7,1.4-2.5,2.1c-2.2,2.1-4.7,3.1-7.7,3.3c-1.5,0.1-2.9,0.3-4.4,0.7c-0.7,0.2-1.4,0.5-2.1,0.9c-0.1-0.7,0.4-0.9,0.9-1.2
		c1.6-0.7,3.3-0.9,5.1-1c0.9-0.1,1.8-0.1,2.7-0.3c1.9-0.4,3.6-1.2,5.1-2.5c0.9-0.8,1.8-1.6,2.7-2.3c0.5-0.4,1-0.8,1.7-1
		c0.5-0.2,0.7-0.1,0.7,0.5C94.3,31.7,94.2,32.7,93.9,33.6"/>
	<path class="st2" d="M58.6,46.8c-0.2,0.6-0.7,0.6-1.2,0.4c-0.6-0.2-0.9-0.7-1.3-1.1c-0.4-0.7-0.7-1.4-1-2.2
		c-0.5-1.5-1.6-2.6-2.7-3.9c-1.1,3.2-2.5,6.1-2.5,9.3c-0.3-1.5-0.1-3,0.3-4.5c0.6-1.9,1.3-3.8,2.1-5.8c0.7,0.7,1.2,1.3,1.6,1.9
		c0.7,1.2,1.7,2.2,2.1,3.6c0.2,0.7,0.7,1.3,1.2,1.8C57.6,46.7,58,47,58.6,46.8"/>
	<path class="st2" d="M52.6,70.8c-0.5,1.5-1,2.7-1.2,4c-0.1,0.3-0.2,0.4-0.5,0.5c-0.4,0-0.7,0-1.1,0c-1.3,0-1.3,0-1.3-1.3
		c0-1.5,0.6-2.2,2.1-2.4C51.2,71.5,51.8,71.2,52.6,70.8"/>
	<path class="st2" d="M56.9,116.3c0,0.5-0.3,0.8-0.7,1c-0.7,0.4-1.3,0.9-2,1.3c-0.5,0.3-0.6,0.5-0.4,1c0.5,1.3,0.8,2.6,1.5,3.8
		c0.5,1,0.1,1.8-1,1.9c0.8-0.8,0.9-1,0.2-1.9c-1-1.4-1.4-3.1-1.9-4.7c-0.2-0.7,0-1,0.8-1.2c0.8-0.2,1.4-0.7,2-1.2
		C55.9,116,56.4,115.9,56.9,116.3"/>
	<path class="st2" d="M52.4,58.5c0.2,0.8,0,1.1-0.8,1.3c-0.5,0.1-1,0.2-1.5,0.3c-0.9,0.1-1.6,0.7-2,1.5c-0.3,0.5-0.6,1.1-0.7,1.7
		c-0.6,2.1-1,4.3-1,6.5c-0.3,0.2-0.5,0-0.5-0.3c0-0.5,0-1.1,0-1.6c0.2-1.7,0.5-3.4,1-5.1c0.1-0.3,0.2-0.7,0.3-1
		c0.6-1.7,1.7-2.6,3.6-2.4C51.5,59.4,52.1,59.3,52.4,58.5"/>
	<path class="st2" d="M34.6,80.3c-0.9,1.3-1.4,2.6-1.7,4.1c-0.1,0.6-0.2,1.2-0.9,1.4c-0.8,0.2-1.2-0.2-1.6-0.8
		c-0.1-0.1-0.2-0.2-0.2-0.4c0.1,0,0.3,0.1,0.4,0.1c0.9,0.1,1.4-0.1,1.5-1.1c0.3-1.6,1-2.9,1.7-4.4C34.3,79.5,34.4,79.9,34.6,80.3"/>
	<path class="st2" d="M90.1,121c0.3,0,0.6,0,0.8,0.1c0.7,0.4,0.7,1.3,0,1.7c-0.4,0.2-0.8,0.2-1.2,0.3c-0.9,0.1-1.7,0.1-2.6,0.1
		c-0.7,0.1-0.8,0.3-0.5,0.9c0.3,0.6,0.9,1,1.5,1.3c1.5,0.7,3.1,1,4.8,1.4c0.6,0.1,1.1,0.2,1.7,0.3c-2.4-0.2-4.6-0.7-6.8-1.5
		c-0.5-0.2-0.9-0.4-1.3-0.7c-0.4-0.2-0.7-0.6-0.9-1c-0.3-0.6-0.2-0.8,0.5-0.9c0.6,0,1.3,0,1.9-0.1c0.4,0,0.8,0,1.2-0.1
		C90.5,122.7,90.8,122.1,90.1,121"/>
	<path class="st2" d="M56.9,110.8c-2.2,2-6.7,2.5-8.9,0.5c3,1.1,5.7,0.6,8.2-1.3c0.1-0.1,0.2-0.1,0.3-0.1
		C56.9,110.1,56.9,110.4,56.9,110.8"/>
	<path class="st2" d="M127.6,47.6c-0.1,0.2-0.2,0.3-0.4,0.4c-0.6,0.2-1.3,0.5-1.9,0.7c-0.9,0.4-1.8,0.9-2.7,1.4
		c-0.2,0.1-0.5,0.3-0.7,0c-0.2-0.3-0.1-0.6,0.2-0.7c1.4-1,2.8-1.9,4.5-2.3c0.2-0.1,0.5-0.1,0.7,0C127.5,47.3,127.6,47.4,127.6,47.6"
		/>
	<path class="st2" d="M22,101.7c1.1,0.5,1.2,1.2,0.3,1.9c-0.4,0.3-0.7,0.5-1.1,0.8c-0.5,0.1-1,0.1-1.5,0.1c-0.2,0-0.4,0.1-0.7-0.1
		c0.4-0.6,0.9-1,1.4-1.3C21,102.7,21.6,102.4,22,101.7"/>
	<path class="st2" d="M103.2,41.6c0.1-0.6,0.1-1.3,0-1.9c-0.3-2-1.6-3.1-3.6-3.2c-1.5,0-2.8,0.4-4.1,1.1c-0.4,0.2-0.8,0.5-1.3,0.5
		c0.1-0.1,0.1-0.3,0.2-0.3c1.3-0.5,2.5-1.3,3.9-1.5c0.4-0.1,0.9-0.1,1.3-0.1c2.5,0,4,1.8,3.8,4.2C103.4,40.8,103.3,41.2,103.2,41.6"
		/>
	<path class="st2" d="M131.4,60.9c0.4,0.6,0.8,1,1.2,1.3c0.7,0.4,0.6,0.9-0.1,1.2c-0.8,0.4-1.6,0.7-2.3,1.2c-0.2,0.1-0.3,0.2-0.5,0
		c-0.1-0.2,0-0.3,0.1-0.5C130.8,63.3,131.2,62.2,131.4,60.9"/>
	<path class="st2" d="M55.6,69.4c0.5,0.3,0.5,0.8,0.1,1.2c-1.1,1.2-1.4,2.7-1.7,4.2c-0.8,0.1-0.8,0.1-0.6-0.5
		c0.3-1.2,0.7-2.4,1.2-3.5C54.8,70.2,55.3,69.8,55.6,69.4"/>
	<path class="st2" d="M95.6,44c-0.5-0.4-1-0.6-1.6-0.8c-1.4-0.4-2.8-0.6-4.3-0.8c-1-0.1-1.2-0.3-1.3-1.3c0.3,0.6,0.8,0.8,1.5,0.9
		c1.5,0.1,2.9,0.4,4.3,0.8c0.4,0.1,0.8,0.3,1.2,0.5C95.6,43.5,95.8,43.7,95.6,44"/>
	<path class="st2" d="M53.5,126.6c0.7,0.2,0.5,0.7,0.2,1.1c-0.5,0.7-1,1.4-1.1,2.2c-1.5-0.1-1.5-0.7-0.8-1.8
		C52.2,127.4,53,127.2,53.5,126.6"/>
	<path class="st2" d="M52.2,54c0.4,0.4,0.4,0.8,0.1,1.2c-0.3,0.4-0.7,0.5-1.1,0.4c-0.6-0.1-1.2-0.3-1.9,0c-0.3-0.2-0.6-0.5-0.8-0.9
		c0.7-0.3,1.4-0.3,2.1-0.1C51.2,54.7,51.8,54.6,52.2,54"/>
	<path class="st2" d="M108.3,48.8c-0.4-0.1-0.7,0.1-1,0.2c-2.2,0.9-4.4,1.8-6.4,3.1c-0.8,0.5-1.4,0.3-1.8-0.5
		c0.7,0.6,1.3,0.5,2.1,0.1c2.1-1.3,4.3-2.2,6.6-3C107.9,48.6,108.2,48.4,108.3,48.8"/>
	<path class="st2" d="M95.6,124.2c1.3-0.1,2.1,0.6,2.7,1.6c0.3,0.5,0.4,1.1,0.6,1.7c-0.9,0.2-1,0.2-1.1-0.5
		C97.5,125.7,96.8,124.8,95.6,124.2"/>
	<path class="st2" d="M142.4,58.3c-0.2-1.3-0.4-1.3-1.5-1c-1.1,0.3-2.1,0.8-3.1,1.2c-0.2-0.1-0.4-0.2-0.5-0.5c1.2-0.5,2.4-1,3.6-1.4
		c0.5-0.2,1.1-0.4,1.5,0C142.8,57.1,142.7,57.7,142.4,58.3C142.4,58.3,142.4,58.3,142.4,58.3"/>
	<path class="st2" d="M129.2,61.7c0-0.3-0.1-0.6-0.2-0.8c-0.4-1.1-1.2-1.6-2.3-1.4c-0.4,0.1-0.9,0.3-1.3,0.4
		c0.5-0.9,1.5-1.3,2.5-1.1c0.9,0.2,1.5,1,1.5,2.1C129.4,61.2,129.4,61.5,129.2,61.7"/>
	<path class="st2" d="M135.2,57.9c0-0.1-0.1-0.1-0.1-0.2c-0.4-1.7-0.9-2.1-2.8-1.9c-0.3-0.4-0.4-0.7,0.3-0.8
		C134.9,54.7,135.9,56.6,135.2,57.9"/>
	<path class="st2" d="M53.3,125.3c-0.1,0.2-0.2,0.4-0.3,0.6c-1.1,0.2-1.8,1-2.4,1.9c0.2-1.2,0.8-2.1,1.6-3c0.2-0.2,0.4-0.2,0.6,0
		C52.9,124.9,53.1,125.1,53.3,125.3"/>
	<path class="st2" d="M128,66.4c-0.3-0.6-0.7-1-1.2-1.4c-0.9-0.6-1-1.2-0.7-2c0.3,0.6,0.7,1.2,1.3,1.5c0.5,0.3,0.8,0.8,1.3,1.9
		C128.4,66.6,128.2,66.5,128,66.4"/>
	<path class="st2" d="M125.1,45.7c-0.2-0.6-0.7-0.5-1.2-0.4c-1,0.2-1.9,0.7-2.7,1.3c0-0.1-0.1-0.2,0-0.2c0.5-1,2.5-2,3.6-1.8
		c0.5,0.1,0.8,0.5,0.7,1C125.4,45.7,125.2,45.7,125.1,45.7"/>
	<path class="st2" d="M58.5,126.9c0.4-0.1,0.7,0,0.4,0.5c-0.1,0.3-0.3,0.5-0.5,0.7c-0.3,0.4-0.4,0.8-0.2,1.2
		c-0.4,0.2-0.9,0.5-1.2,0.2c-0.3-0.3,0.1-0.8,0.2-1.2C57.5,127.7,58.2,127.5,58.5,126.9"/>
	<path class="st2" d="M47.9,111.2c-0.4,0.1-0.3,0.4-0.2,0.7c0.1,0.7,0.5,1.4,0.8,2c-0.1,0.1-0.2,0.1-0.3,0c-0.9-0.9-1.5-2-1.5-3.5
		C47.2,110.8,47.6,111,47.9,111.2"/>
	<path class="st2" d="M92.9,50.6c-1-0.9-2-1.7-3.3-2.2c-0.4-0.1-0.6-0.5-0.6-0.9c0.4,0.4,0.9,0.6,1.3,0.8
		C91.5,48.9,92.4,49.5,92.9,50.6"/>
	<path class="st2" d="M133.2,67.4c0-0.7,0.1-1.5-0.1-2.3c-0.8,0.2-1.4,0.5-2.1,0.9c-0.3-0.1-0.4-0.3-0.1-0.5
		c0.7-0.5,1.5-0.8,2.4-1.1c0.2,1,0.1,2,0,2.9C133.4,67.4,133.3,67.4,133.2,67.4"/>
	<path class="st2" d="M97.3,45.8c-0.1,0.7-0.7,1-1.2,1.3c-0.7,0.5-1.5,0.7-2.2,0.9c-0.1-0.1-0.3-0.2-0.2-0.3
		c0.1-0.1,0.2-0.1,0.4-0.2C95.3,47.3,96.4,46.7,97.3,45.8"/>
	<path class="st2" d="M100.9,42.1c-0.5-1.1-0.9-1.3-2.1-0.9c-0.5,0.2-1,0.6-1.4,0.9c0.4-0.9,2-1.7,2.8-1.5
		C100.9,40.9,101,41.5,100.9,42.1"/>
	<path class="st2" d="M59.2,42.2c-0.7,0.4-1,0.3-1.3-0.1c-0.2-0.2-0.3-0.5-0.5-0.8c0.3-0.5,0.6-0.4,0.7,0.1
		C58.4,41.9,58.7,42.2,59.2,42.2"/>
	<path class="st2" d="M98.4,49.3c-0.3,0.7-0.9,1-1.6,1.1c-0.4,0.1-0.9,0-0.9-0.6c0.6,0.4,1.2,0.3,1.8-0.1
		C97.9,49.6,98.1,49.4,98.4,49.3"/>
	<path class="st2" d="M100.3,123.3c0.2,0,0.4,0,0.6-0.1c0.8,0.4,1.1,1.1,1.2,2.1C101.7,124.4,101.1,123.7,100.3,123.3"/>
	<path class="st2" d="M125.4,59.9c-0.2,0.4-0.4,0.7-0.8,0.9c-0.3,0.1-0.6,0.3-0.9,0.5C123.9,60.4,124.6,60.1,125.4,59.9"/>
	<path class="st2" d="M136.5,61.6c-0.1-0.3,0.1-0.7-0.3-0.8c0.1-0.2,0.2-0.5,0.3-0.6C136.9,60.9,136.9,60.9,136.5,61.6"/>
	<path class="st2" d="M135.9,61.4c0,0.4-0.4,0.6-0.6,0.9c-0.3,0.1-0.5-0.1-0.3-0.4C135.2,61.7,135.5,61.5,135.9,61.4"/>
	<path class="st2" d="M99,45.6c-0.1,0.4-0.3,0.5-0.7,0.5c-0.3,0-0.4-0.2-0.3-0.5C98.3,45.8,98.7,45.7,99,45.6"/>
	<path class="st2" d="M61.3,37.8c0,0.5-0.3,0.9-0.6,1.3C60.8,38.6,60.9,38.2,61.3,37.8"/>
	<path class="st2" d="M99.4,48.2c-0.2,0.5-0.5,0.9-1.1,1.1C98.6,48.9,99,48.5,99.4,48.2"/>
	<path class="st2" d="M93.7,52.1L93.1,51C93.5,51.3,93.6,51.7,93.7,52.1"/>
	<path class="st2" d="M100.3,47.2c-0.1,0.4-0.3,0.6-0.6,0.8C99.8,47.7,100,47.4,100.3,47.2"/>
	<path class="st2" d="M99,43.6c-0.2,0-0.4,0-0.7,0c0.1-0.3,0.3-0.4,0.6-0.4C99.3,43.3,99.2,43.5,99,43.6"/>
	<path class="st2" d="M94,38.2c-0.1,0.4-0.4,0.7-0.7,0.9C93.4,38.7,93.7,38.5,94,38.2"/>
	<path class="st2" d="M92.9,39.5c-0.1,0.2-0.3,0.3-0.4,0.5c-0.2,0-0.3-0.1-0.1-0.2C92.5,39.6,92.7,39.4,92.9,39.5"/>
	<path class="st2" d="M99.5,45.1c-0.1,0.3-0.2,0.5-0.5,0.5C99.1,45.5,99.3,45.3,99.5,45.1"/>
	<polyline class="st2" points="100.4,46.9 100.3,47 100.4,46.9 	"/>
	<path class="st2" d="M98.3,43.6c0,0.2-0.2,0.2-0.3,0.3C98.1,43.8,98.1,43.6,98.3,43.6"/>
	<path class="st2" d="M93.2,51c-0.2-0.1-0.3-0.2-0.3-0.4C93.1,50.7,93.2,50.8,93.2,51"/>
	<path class="st2" d="M123.9,51.5c0.2,0.2-0.1,0.3-0.2,0.4c-0.1-0.1-0.2-0.2-0.1-0.4C123.8,51.3,123.9,51.3,123.9,51.5"/>
	<path class="st2" d="M99.6,48c0,0.1-0.1,0.2-0.2,0.3C99.5,48.1,99.5,48.1,99.6,48"/>
	<path class="st2" d="M136,61.2c-0.1,0.1-0.1,0.2-0.2,0.3C135.8,61.3,135.9,61.2,136,61.2"/>
	<path class="st2" d="M30.2,84.6c-0.1-0.1-0.2-0.2-0.3-0.2C30,84.4,30.1,84.5,30.2,84.6"/>
	<path class="st2" d="M94.2,38c0,0.1-0.1,0.2-0.2,0.2C94,38.1,94.1,38,94.2,38"/>
	<path class="st2" d="M97.5,45.6c0,0.1-0.1,0.2-0.2,0.3C97.3,45.8,97.4,45.7,97.5,45.6"/>
	<path class="st2" d="M93.1,39.3c0,0.1-0.1,0.2-0.2,0.2C92.9,39.4,93,39.3,93.1,39.3"/>
	<path class="st2" d="M93.3,39.1c-0.1,0.1-0.2,0.2-0.2,0.2C93.1,39.1,93.2,39.1,93.3,39.1"/>
	<path class="st1" d="M79.4,65.1c0.5,0.2,1,0,1.5,0c0.8-0.1,1.6-0.1,2.3-0.2c1,0,1,0,1.4-1c0.1-0.2,0-0.4-0.2-0.4
		c-0.7-0.1-1.1-0.6-1.7-0.8c-0.1-0.1-0.2-0.3-0.2-0.4l0,0c-1.2-1.5-0.8-2.9,0.7-3.9c0.8-0.5,1.6-0.9,2.6-1c1.7-0.1,2.5,0.4,3.2,2
		c0.1,1.5-0.7,2.6-1.9,3.3c-1,0.6-1.2,1.4-1.5,2.3c-0.1,0.3,0,0.4,0.3,0.4c1.6,0.2,3.2,0.1,4.6-0.8c0.9-0.5,1.3-0.4,1.9,0.5
		c0,0.9-0.6,1.4-1.4,1.8c-2,0.9-4,1.2-6.1,0.6c-1.1-0.3-2.1-0.4-3.2-0.3c-0.5,0.1-0.9,0.1-1.4,0.1c-0.9,0.1-1.7,0-2.5-0.5
		c0,0-0.1-0.1-0.1-0.1c0,0,0,0,0,0c-0.4-0.5-0.8-1-0.8-1.6c0-0.4,0-0.9,0.3-1.3c0.2-0.4,0.6-0.7,1.1-0.7c0.6,0,0.9,0.5,1,0.9
		c-0.1,0.2-0.2,0.4-0.3,0.7C78.9,65,79.1,65.2,79.4,65.1 M84.4,61.4c0.5,0,0.9-0.2,1.2-0.5c0.3-0.3,0.6-0.6,0.5-1
		c-0.1-0.5-0.5-0.8-1-0.8c-0.7,0-1.3,0.2-1.7,0.7c-0.5,0.5-0.3,1.2,0.4,1.4C83.9,61.3,84.2,61.4,84.4,61.4"/>
	<path class="st1" d="M63.8,41c-0.5-3.3,1.2-6.9,4-8.6c0.2-0.1,0.4-0.2,0.6-0.3c1.6-0.7,2.9-0.2,3.5,1.4c0.3,0.7,0.4,1.5,0.4,2.2
		c0,1.6-0.1,3.1-0.3,4.6c-0.1,0.7-0.3,1.5-0.5,2.2c-0.4,1.1-0.8,1.2-1.7,0.5c-0.3,0.5-0.7,0.9-1.1,1.3c-0.8,0.7-1.6,0.8-2.6,0.2
		c-0.5-0.3-0.8-0.7-1.2-1.1c-0.3-0.4-0.6-0.9-0.9-1.3l0,0c0-0.2,0-0.5-0.2-0.7c0,0,0-0.1,0-0.1C63.9,41.3,63.8,41.2,63.8,41
		 M67.2,41.2c-0.6,0.3-0.9-0.1-1.2-0.5c-0.1-0.5-0.1-1-0.1-1.5c0.1-1,0.3-2,1.1-2.8c0.7-0.7,1.5-0.5,1.9,0.4
		c0.1,0.3,0.1,0.6,0.1,0.8c0,0.5,0,1-0.1,1.5c0,0.2-0.1,0.5,0.2,0.6c0.9,0.3,1.1,1.1,1.3,2c0.5-1.8,0.5-3.4,0.6-5.1
		c0-0.8,0-1.6-0.2-2.4c-0.4-1.3-1.1-1.7-2.3-0.9c-2.1,1.4-3.4,3.3-3.7,5.8c0,0.3,0,0.6,0,1c0.1,1.3,0.6,2.3,1.6,3.2
		c0.6,0.5,1,0.5,1.6-0.1c0.4-0.4,0.8-0.9,0.9-1.5c0-0.7,0-0.8-0.6-0.7c-0.3,0-0.6,0-0.8-0.1c-0.2-0.4-0.1-0.8,0-1.2
		c0.1-0.5,0.2-1.1,0.2-1.6c0.1-0.3,0.2-0.5-0.1-0.8c-0.4,0.6-0.7,1.2-0.6,1.8c0,0.4-0.1,0.8,0.1,1.2C67.4,40.7,67.3,41,67.2,41.2"/>
	<path class="st2" d="M77.8,66.8c0.8,0.5,1.6,0.6,2.5,0.5c0.5,0,0.9,0,1.4-0.1c1.1-0.1,2.1,0,3.2,0.3c2.1,0.6,4.1,0.3,6.1-0.6
		c0.7-0.3,1.3-0.8,1.4-1.8c0.4,0.6,0.2,1.1-0.3,1.5c-0.2,0.2-0.5,0.4-0.8,0.6c-1.9,1-3.9,1.3-6,0.7c-1.3-0.3-2.5-0.4-3.8-0.3
		c-0.6,0.1-1.2,0.1-1.8,0.1C78.9,67.8,78.2,67.6,77.8,66.8"/>
	<path class="st2" d="M64.1,42.1c0.3,0.4,0.6,0.9,0.9,1.3c0.3,0.4,0.7,0.8,1.2,1.1c0.9,0.6,1.7,0.5,2.6-0.2c0.4-0.4,0.8-0.9,1.1-1.3
		c0.9,0.7,1.3,0.6,1.7-0.5c0.3-0.7,0.4-1.5,0.5-2.2c0,0.9-0.2,1.7-0.4,2.6c-0.1,0.3-0.2,0.6-0.4,0.9c-0.3,0.4-0.6,0.6-1.1,0.2
		c-0.3-0.3-0.5-0.2-0.7,0.1c-0.3,0.4-0.5,0.8-0.9,1.1c-0.7,0.5-1.5,0.7-2.2,0.2C65.2,44.7,64.3,43.6,64.1,42.1"/>
	<path class="st1" d="M75.8,58.7c0,0.8-0.7,1.6-1.6,1.6c-0.8,0-1.5-0.5-1.5-1.4c0-0.8,0.7-1.5,1.6-1.5
		C75.2,57.4,75.8,57.9,75.8,58.7"/>
	<path class="st1" d="M79.8,59.3c-0.7,0-1.4-0.6-1.4-1.4c0-0.8,0.6-1.3,1.4-1.3c0.7,0,1.3,0.6,1.3,1.3
		C81.2,58.6,80.5,59.3,79.8,59.3"/>
	<path class="st2" d="M85.8,65.5c-0.3,0-0.4-0.1-0.3-0.4c0.3-0.9,0.5-1.8,1.5-2.3c1.2-0.7,2-1.7,1.9-3.3c0.4,1,0.2,1.8-0.5,2.6
		c-0.3,0.3-0.6,0.7-0.9,0.9C86.5,63.5,86.1,64.4,85.8,65.5"/>
	<path class="st1" d="M97,64.9c-0.3-0.1-0.9-0.2-1.4-0.3c-0.3-0.1-0.5-0.3-0.4-0.7c0.1-0.3,0.3-0.4,0.6-0.3c0.6,0.1,1.1,0.2,1.7,0.3
		c0.3,0.1,0.5,0.2,0.5,0.6C97.9,64.8,97.6,64.9,97,64.9"/>
	<path class="st1" d="M67.5,66.4c-0.4,0-0.7-0.4-0.5-0.7c0.3-0.6,0.8-1.1,1.4-1.4c0.3-0.2,0.7,0.1,0.7,0.5
		C69.1,65.1,67.9,66.4,67.5,66.4"/>
	<path class="st1" d="M97.4,63.4c-0.4-0.1-0.9-0.1-1.4-0.3c-0.3-0.1-0.6-0.4-0.5-0.7c0.1-0.3,0.4-0.4,0.7-0.3
		c0.5,0.1,1.1,0.2,1.6,0.3c0.3,0.1,0.5,0.2,0.4,0.5c-0.1,0.2-0.1,0.6-0.5,0.6C97.7,63.4,97.6,63.4,97.4,63.4"/>
	<path class="st1" d="M66.2,64.9c-0.4,0-0.6-0.4-0.4-0.8c0.4-0.5,0.9-0.9,1.5-1.2c0.4-0.2,0.7,0.1,0.7,0.5
		C67.9,63.9,66.7,64.9,66.2,64.9"/>
	<path class="st2" d="M82.7,62.7c0.6,0.2,1.1,0.7,1.7,0.8c0.2,0,0.3,0.2,0.2,0.4C83.8,63.7,83.2,63.3,82.7,62.7"/>
	<path class="st2" d="M79.4,65.1c-0.3,0.1-0.5-0.1-0.4-0.4c0.1-0.2,0.2-0.4,0.3-0.7C79.6,64.4,79.5,64.8,79.4,65.1"/>
	<path class="st2" d="M63.9,41.5c0.2,0.2,0.2,0.4,0.2,0.7C63.8,42,63.9,41.7,63.9,41.5"/>
	<path class="st2" d="M63.8,41c0,0.1,0,0.3,0.1,0.4C63.8,41.3,63.8,41.2,63.8,41"/>
	<polyline class="st2" points="77.7,66.7 77.7,66.7 77.7,66.7 	"/>
	<polyline class="st2" points="82.5,62.4 82.5,62.3 82.5,62.4 	"/>
	<path class="st0" d="M90.8,91.2c0,1.5,0.5,2.2,0,2.2c-0.5,0-1.8,0.5-1.8-1c0-1.5-0.2-4.3,0.3-4.3C89.9,88.1,90.8,89.7,90.8,91.2"/>
	<path class="st1" d="M87.6,88.4c0.2-0.4,0.3-0.9,0.8-1c0.7-0.2,1.4-0.4,2.1-0.4c0.4,0,0.6,0.4,0.4,0.7c-0.6,0.6-0.3,1.2-0.1,1.8
		c0.2,0.8,0.5,1.5,0.7,2.3c0.2,1.1,0.2,2.1-0.9,2.7c-0.3,0.2-0.2,0.5-0.3,0.8c0,0.4-0.2,0.6-0.6,0.7c-0.6,0.1-1-0.1-1.2-0.5
		c-0.1-0.2-0.1-0.5-0.1-0.7c0-0.2,0-0.4-0.2-0.6c-1-0.7-0.9-1.8-0.9-2.8c0-0.5,0.2-1,0.2-1.5c0-0.2,0.1-0.5-0.2-0.5
		c-0.7,0-1-0.5-1.4-0.9c-0.5-0.4-0.9-1.1-1.5-1.2c-0.6,0-0.9,0.8-1.4,1.2c-0.3,0.3-0.6,0.5-0.9,0.2c-0.3-0.3-0.2-0.7,0.1-1
		c0.3-0.4,0.6-0.7,1-1c0.3-0.3,0.3-0.5,0-0.8c-0.4-0.4-0.9-0.8-1.3-1.2c-0.3-0.2-0.4-0.5-0.1-0.9c0.3-0.3,0.6-0.2,0.9,0.1
		c0.4,0.4,0.9,0.7,1.3,1.1c0.3,0.3,0.6,0.3,0.9,0c0.3-0.4,0.7-0.7,1.1-1.1c0.3-0.2,0.6-0.3,0.9,0c0.2,0.3,0.1,0.5-0.1,0.8
		c-0.4,0.4-0.7,0.8-1.1,1.2c-0.2,0.2-0.2,0.4,0,0.6C86.1,87.1,86.8,87.8,87.6,88.4 M89.3,93.3c0.9,0.2,1.2,0.1,1.1-0.8
		c-0.1-1.2-0.5-2.3-1-3.4c-0.1-0.2,0.1-0.7-0.3-0.7c-0.3,0-0.3,0.3-0.4,0.6c-0.1,1-0.4,2-0.3,3.1C88.4,92.8,88.6,93.2,89.3,93.3"/>
	<path class="st1" d="M76.5,90.6c0.1-0.7,0.2-1.5,0.5-2.3c0.2-0.5,0.5-1,0.4-1.7c0-0.4,0.3-0.6,0.7-0.5c0.9,0.2,1.7,0.5,2.6,0.9
		c0.3,0.1,0.4,0.3,0.3,0.6c-0.3,1-0.1,1.9-0.1,2.9c-0.1,1.1-0.2,2.2-1.2,3c-0.4,0.3-0.3,0.7-0.4,1.1c-0.2,0.4-0.3,0.9-0.9,0.7
		c-0.5-0.1-0.8-0.3-0.7-0.9c0-0.4-0.1-0.7-0.3-1C76.7,92.6,76.5,91.7,76.5,90.6 M79.7,88c0-0.2-0.1-0.2-0.3-0.3
		c-0.8-0.4-0.9-0.3-1.2,0.4c-0.3,0.8-0.5,1.7-0.5,2.5c0,0.6,0.1,1.2,0.3,1.8c0.1,0.2,0.3,0.3,0.5,0.1c0.8-0.2,1.1-0.8,1.1-1.5
		C79.7,90.1,79.8,89.1,79.7,88"/>
	<path class="st1" d="M55.2,79.6c-0.1-0.3-0.4-0.1-0.5-0.1c-0.2,0-0.4,0-0.4-0.2c-0.1-0.2,0-0.4,0.2-0.5c0.8-0.5,1.7-0.8,2.7-1.1
		c0.2-0.1,0.4,0.1,0.4,0.3c0,0.2-0.1,0.4-0.2,0.4c-0.6,0.3-1.2,0.5-1.8,0.8C55.3,79.3,55,79.3,55.2,79.6L55.2,79.6z"/>
	<path class="st1" d="M101.8,86.3c-0.1,0-0.3-0.1-0.3-0.2c-0.1-0.1,0-0.3,0.1-0.4c0.3-0.2,0.6-0.4,0.9-0.6c0.4-0.3,0.8-0.5,1.2-0.7
		c0.2-0.1,0.4-0.1,0.5,0.1c0.1,0.2,0.1,0.4-0.1,0.5c-0.7,0.5-1.3,0.9-2,1.4C101.9,86.2,101.9,86.2,101.8,86.3"/>
	<path class="st1" d="M55.2,79.7c0.5,0.2,0.8-0.2,1.2-0.3c0.2,0,0.4,0,0.5,0.2c0.1,0.2-0.1,0.4-0.3,0.5c-0.7,0.3-1.3,0.6-2,0.8
		c-0.2,0.1-0.5,0.1-0.6-0.2c-0.1-0.3,0.2-0.4,0.4-0.6C54.7,80,55.1,80.1,55.2,79.7L55.2,79.7z"/>
	<path class="st2" d="M84.4,61.4c-0.2,0-0.5-0.1-0.7-0.1c-0.7-0.2-0.9-0.9-0.4-1.4c0.5-0.5,1.1-0.7,1.7-0.7c0.5,0,0.9,0.3,1,0.8
		c0.1,0.5-0.1,0.8-0.5,1C85.3,61.2,84.9,61.4,84.4,61.4 M83.9,60.5c0.5,0.1,0.9,0,1.2-0.3c0.1-0.1,0-0.2-0.1-0.3
		c-0.4-0.1-0.8,0.1-1.1,0.3C84,60.3,84,60.4,83.9,60.5"/>
	<path class="st2" d="M71.1,36.6c0-0.6-0.2-1.3-0.4-1.9c-0.4-0.9-1-1.2-1.9-0.8c-0.6,0.3-1.1,0.7-1.5,1.1c-1.1,1.2-1.8,2.5-2.3,4.1
		c0.2-2.6,1.6-4.5,3.7-5.8c1.1-0.7,1.9-0.4,2.3,0.9C71.1,35,71.2,35.8,71.1,36.6"/>
	<path class="st2" d="M69,41.7c-0.2,0-0.4,0.1-0.6,0.1c-0.7,0.1-0.8-0.1-0.8-0.9c0.3,0.1,0.5,0.1,0.8,0.1C69.1,41,69.1,41,69,41.7"
		/>
	<path class="st2" d="M67.2,41.2c0.2,0.4,0.2,0.7-0.3,0.9c-0.4,0.1-0.6-0.2-0.7-0.5C66,41.3,66,41,66,40.7
		C66.3,41.1,66.6,41.5,67.2,41.2"/>
	<path class="st2" d="M67.8,38.2c-0.5,0.2-0.4,0.7-0.7,1c-0.1-0.7,0.2-1.2,0.6-1.8C68,37.7,67.9,38,67.8,38.2"/>
	<path class="st1" d="M83.9,60.5c0.1-0.2,0.1-0.2,0.1-0.2c0.3-0.3,0.6-0.5,1.1-0.3c0.1,0,0.2,0.2,0.1,0.3
		C84.8,60.6,84.4,60.6,83.9,60.5"/>
	<path class="st2" d="M81.3,18c3.1-0.2,6.3-0.2,9.4,0.3c1.2,0.2,2.2,0.4,3.3,0.8c0.2,0.1,0.4,0.2,0.6,0.3c0.1,0,0.2,0.1,0.3,0.1
		c0,0,0.1,0,0.1,0.1c0.2,0.1-0.1-0.1,0,0c0.2,0.1,0.3,0.2,0.5,0.3c0.1,0.1,0.1,0.1,0.2,0.2c0.1,0.1-0.1-0.1,0.1,0.1
		c0,0.1,0.1,0.1,0.1,0.2c0,0,0.2,0.2,0.1,0.1c-0.1-0.1,0,0.1,0,0.1c0,0.1,0.1,0.3,0.1,0.1c-0.1-0.2,0,0.4,0,0.2c0-0.2,0,0,0,0.1
		c0,0.1,0,0.1,0,0.2c0-0.3,0,0-0.1,0.2c0,0-0.1,0.3-0.1,0.1c0.1-0.1-0.1,0.1-0.1,0.1c-0.1,0.1-0.2,0.3-0.3,0.4c-0.1,0.1-0.2,0.2,0,0
		c-0.1,0.1-0.1,0.1-0.2,0.2c-1.5,1.4-3.5,2.2-5.5,3C87,26.1,84,26.8,81,27.3c-3.4,0.6-6.9,0.9-10.3,0.9c-2.6,0-5.4-0.2-7.8-0.9
		c-0.5-0.1-0.9-0.3-1.4-0.5c-0.1,0-0.2-0.1-0.3-0.1c0,0-0.3-0.1-0.2-0.1c0.1,0.1-0.1-0.1-0.2-0.1c-0.1-0.1-0.2-0.1-0.3-0.2
		c-0.1,0-0.1-0.1-0.2-0.2c0,0-0.3-0.2-0.1-0.1c0.1,0.1-0.1-0.1-0.1-0.1c-0.1-0.1-0.1-0.1-0.2-0.2c-0.1-0.1-0.1-0.1,0,0
		c0-0.1-0.1-0.1-0.1-0.2c-0.1-0.1,0-0.1,0,0c0-0.1,0-0.2-0.1-0.3c0-0.2,0-0.1,0,0c0-0.1,0-0.1,0-0.2c0-0.2,0-0.1,0,0
		C60,25.1,60,25,60,25c0-0.1,0.1-0.1,0.1-0.2c0,0-0.1,0.1,0,0c0.1-0.2,0.2-0.3,0.4-0.5c0,0,0.2-0.2,0.1-0.1
		c-0.1,0.1,0.1-0.1,0.1-0.1c0.2-0.2,0.3-0.3,0.5-0.4c0.4-0.3,0.8-0.6,1.2-0.8c2.4-1.4,5.2-2.3,7.9-3c0.9-0.2,1.7-0.4,2.6-0.6
		c1.4-0.3,1-2.5-0.4-2.2c-3.3,0.7-6.7,1.6-9.8,3.1c-1.8,0.9-4.2,2.2-4.9,4.2c-0.7,2,0.7,3.5,2.3,4.4c2.2,1.2,4.9,1.5,7.4,1.7
		c3.7,0.3,7.4,0.1,11-0.4c3.5-0.4,7.1-1.2,10.5-2.3c2.4-0.8,5-1.8,7-3.3c1.4-1.1,2.7-2.7,2.1-4.5c-0.6-1.9-2.9-2.8-4.7-3.2
		c-3.1-0.8-6.3-1-9.5-0.9c-1,0-2,0.1-3,0.1c-0.6,0-1,0.7-0.9,1.3C80.2,17.7,80.7,18,81.3,18"/>
	<path class="st2" d="M77.2,18.4c1.4,0.1,1.6-2,0.2-2.2C76,16,75.8,18.2,77.2,18.4"/>
</g>
</svg>
